SplineFontDB: 3.0
FontName: Muli-Regular
FullName: Muli Regular
FamilyName: Muli
Weight: Regular
Copyright: 2013 (c) vernon adams
Version: x
ItalicAngle: 0
UnderlinePosition: 0
UnderlineWidth: 0
Ascent: 1638
Descent: 410
UFOAscent: 1835
UFODescent: -601
LayerCount: 2
Layer: 0 0 "Back"  1
Layer: 1 0 "Fore"  0
FSType: 0
OS2Version: 0
OS2_WeightWidthSlopeOnly: 0
OS2_UseTypoMetrics: 1
CreationTime: 1363411372
ModificationTime: 1363413946
PfmFamily: 33
TTFWeight: 400
TTFWidth: 5
LineGap: 0
VLineGap: 0
OS2TypoAscent: 1978
OS2TypoAOffset: 0
OS2TypoDescent: -679
OS2TypoDOffset: 0
OS2TypoLinegap: 0
OS2WinAscent: 1978
OS2WinAOffset: 0
OS2WinDescent: 679
OS2WinDOffset: 0
HheadAscent: 1978
HheadAOffset: 0
HheadDescent: -679
HheadDOffset: 0
OS2Vendor: 'newt'
Lookup: 260 0 0 "markMarkPositioninglookup0"  {"markMarkPositioninglookup0 subtable"  } ['mark' ('latn' <'dflt' > 'grek' <'dflt' > 'DFLT' <'dflt' > ) ]
MarkAttachClasses: 1
DEI: 91125
LangName: 1033 "" "" "" "" "" "" "" "" "" "" "" "" "" "Copyright (c) 2013, vernon adams (<URL|email>),+AAoA-with Reserved Font Name Muli.+AAoACgAA-This Font Software is licensed under the SIL Open Font License, Version 1.1.+AAoA-This license is copied below, and is also available with a FAQ at:+AAoA-http://scripts.sil.org/OFL+AAoA" "http://scripts.sil.org/OFL" 
Encoding: Google-webfonts-latin
UnicodeInterp: none
NameList: AGL For New Fonts
DisplaySize: -48
AntiAlias: 1
FitToEm: 1
WinInfo: 266 19 10
BeginPrivate: 0
EndPrivate
TeXData: 1 0 0 307200 153600 102400 525312 -1048576 102400 783286 444596 497025 792723 393216 433062 380633 303038 157286 324010 404750 52429 2506097 1059062 262144
AnchorClass2: "ogonek"  "markMarkPositioninglookup0 subtable" "bottom"  "markMarkPositioninglookup0 subtable" "top"  "markMarkPositioninglookup0 subtable" 
BeginChars: 65546 443

StartChar: A
Encoding: 33 65 0
Width: 1397
VWidth: 0
GlyphClass: 2
Flags: W
AnchorPoint: "top" 700 1456 basechar 0
AnchorPoint: "bottom" 736 0 basechar 0
AnchorPoint: "ogonek" 1260 0 basechar 0
LayerCount: 2
Fore
SplineSet
27.293716074 0 m 1
 232.332421716 0 l 1
 378.296993741 382.115574111 l 1
 1013.49271399 382.115574111 l 1
 1161.80728601 0 l 1
 1369.53141963 0 l 1
 798.489707729 1456 l 1
 596.35 1456 l 1
 27.293716074 0 l 1
437.709561593 548.62613779 m 1
 637.322007375 1101.04932949 l 1
 694.427139877 1265.05601252 l 1
 751.793201397 1101.9066155 l 1
 949.09471816 548.62613779 l 1
 437.709561593 548.62613779 l 1
EndSplineSet
EndChar

StartChar: AE
Encoding: 133 198 1
Width: 2061
VWidth: 0
GlyphClass: 2
Flags: W
LayerCount: 2
Fore
SplineSet
25.821858037 0 m 1
 869 1456 l 1
 1886.05956159 1456 l 1
 1886.05956159 1292.4748643 l 1
 1196.31484343 1292.4748643 l 1
 1236.48670147 828.077139877 l 1
 1854.32941546 828.077139877 l 1
 1854.32941546 672.059290185 l 1
 1251.4929854 672.059290185 l 1
 1297.96484343 162.017849692 l 1
 1911.40956159 162.017849692 l 1
 1911.40956159 0 l 1
 1118.06256785 0 l 1
 1083.09799583 401.531148222 l 1
 471.017849692 401.531148222 l 1
 242.237703556 0 l 1
 25.821858037 0 l 1
545.430417544 548.020855951 m 1
 1068.90528184 548.020855951 l 1
 1013.4334238 1292.4748643 l 1
 965.996993741 1292.4748643 l 1
 545.430417544 548.020855951 l 1
EndSplineSet
EndChar

StartChar: B
Encoding: 34 66 11
Width: 1343
VWidth: 0
GlyphClass: 2
Flags: W
AnchorPoint: "top" 700 1456 basechar 0
AnchorPoint: "bottom" 676 0 basechar 0
LayerCount: 2
Fore
SplineSet
187.741711901 0 m 1
 187.741711901 1456 l 1
 554.839707729 1456 l 2
 823.290709815 1456 1155.29699374 1421.28442589 1155.29699374 1095.85628393 c 0
 1155.29699374 943.07613779 1074.56684761 811.003277667 905.78670147 768.433423803 c 1
 1104.23770356 735.077139877 1224.45427975 596.562567852 1224.45427975 402.289707729 c 0
 1224.45427975 177.167849692 1051.64699374 0 705.60528184 0 c 2
 187.741711901 0 l 1
379.759561593 164.296993741 m 1
 669.727139877 164.296993741 l 2
 898.964572025 164.296993741 1022.6082881 240.244989569 1022.6082881 407.325135704 c 0
 1022.6082881 609.262567852 907.863569938 672.020855951 639.961565766 672.020855951 c 2
 379.759561593 672.020855951 l 1
 379.759561593 164.296993741 l 1
379.266847606 832.489707729 m 1
 615.017849692 832.489707729 l 2
 793.720855951 832.489707729 955.451002086 882.933423803 955.451002086 1069.17085595 c 0
 955.451002086 1253.91557411 807.548997914 1291.70300626 596.412567852 1291.70300626 c 2
 379.266847606 1291.70300626 l 1
 379.266847606 832.489707729 l 1
EndSplineSet
EndChar

StartChar: C
Encoding: 35 67 12
Width: 1390
VWidth: 0
GlyphClass: 2
Flags: W
AnchorPoint: "top" 790 1456 basechar 0
AnchorPoint: "bottom" 826 0 basechar 0
LayerCount: 2
Fore
SplineSet
824.370855951 -22 m 0
 456.857286012 -22 107.507286012 220.391711901 107.507286012 716.370855951 c 0
 107.507286012 1151.40956159 395.688705643 1482.35 815.65 1482.35 c 0
 993.136430062 1482.35 1145.49271399 1440.68542798 1275.72713988 1332.82185804 c 1
 1200.35 1202.35300626 l 1
 1091.13014614 1282.70929018 963.943716074 1319.00300626 833.492713988 1319.00300626 c 0
 493.923131532 1319.00300626 310.175135704 1031.90528184 310.175135704 716.356283926 c 0
 310.175135704 353.104279753 531.961565766 141.139707729 833.548997914 141.139707729 c 0
 973.035427975 141.139707729 1110.03542798 185.961565766 1245.52814196 285.982421716 c 1
 1309.91985386 130.863569938 l 1
 1166.70628393 26.3145720247 998.720855951 -22 824.370855951 -22 c 0
EndSplineSet
EndChar

StartChar: D
Encoding: 36 68 18
Width: 1521
VWidth: 0
GlyphClass: 2
Flags: W
AnchorPoint: "top" 700 1456 basechar 0
AnchorPoint: "bottom" 676 0 basechar 0
LayerCount: 2
Fore
SplineSet
379.266847606 164.296993741 m 1
 622.468851778 164.296993741 l 2
 1028.62914405 164.296993741 1211.19271399 388.685427975 1211.19271399 725.213569938 c 0
 1211.19271399 1134.62586638 992.27613779 1291.70300626 538.115845519 1291.70300626 c 2
 379.266847606 1291.70300626 l 1
 379.266847606 164.296993741 l 1
187.741711901 0 m 1
 187.741711901 1456 l 1
 516.623131532 1456 l 2
 1054.76283926 1456 1413.70327767 1266.46858037 1413.70327767 727.020855951 c 0
 1413.70327767 275.608288099 1130.01784969 0 609.468851778 0 c 2
 187.741711901 0 l 1
EndSplineSet
EndChar

StartChar: E
Encoding: 37 69 21
Width: 1167
VWidth: 0
GlyphClass: 2
Flags: W
AnchorPoint: "top" 656 1456 basechar 0
AnchorPoint: "bottom" 826 0 basechar 0
AnchorPoint: "ogonek" 850 0 basechar 0
LayerCount: 2
Fore
SplineSet
187.741711901 0 m 1
 187.741711901 1456 l 1
 1059.35327767 1456 l 1
 1059.35327767 1291.70300626 l 1
 379.266847606 1291.70300626 l 1
 379.266847606 823.309561593 l 1
 1021.70327767 823.309561593 l 1
 1021.70327767 658.662567852 l 1
 379.759561593 658.662567852 l 1
 379.759561593 164.296993741 l 1
 1089.00327767 164.296993741 l 1
 1089.00327767 0 l 1
 187.741711901 0 l 1
EndSplineSet
EndChar

StartChar: Eng
Encoding: 265 330 30
Width: 1570
VWidth: 0
GlyphClass: 2
Flags: W
LayerCount: 2
Fore
SplineSet
544.97613779 -366.003277667 m 1
 567.489707729 -214.584425889 l 1
 699.032891963 -250.029905951 808.806944049 -268.575169938 897.779430062 -268.575169938 c 0
 1092.14840299 -268.575169938 1179.32222551 -186.924246135 1190.54906988 0.523902061458 c 0
 1191.00935039 7.00543439637 1191.35657164 47.6866691508 1191.80728601 54.5148377904 c 1
 461.430417544 1058.37058454 l 1
 375.454279753 1192.00300626 l 1
 375.454279753 0 l 1
 189.192713988 0 l 1
 189.192713988 1456 l 1
 401.982421716 1456 l 1
 1103.72386221 469.976409199 l 1
 1193.31457202 334.822129445 l 1
 1193.31457202 1456 l 1
 1380.61156577 1456 l 1
 1380.61156577 104.898726505 l 2
 1380.61156577 -232.122129445 1251.2560762 -414.112135704 902.291694049 -414.112135704 c 0
 802.272436012 -414.112135704 683.598569938 -398.489699692 544.97613779 -366.003277667 c 1
EndSplineSet
EndChar

StartChar: Eth
Encoding: 143 208 32
Width: 1505
VWidth: 0
GlyphClass: 2
Flags: W
LayerCount: 2
Fore
SplineSet
11.3417119014 791.268851778 m 1
 573.662108582 791.268851778 l 1
 573.662108582 654.817849692 l 1
 11.3417119014 654.817849692 l 1
 11.3417119014 791.268851778 l 1
EndSplineSet
Refer: 18 68 N 1 0 0 1 0 0 2
EndChar

StartChar: Euro
Encoding: 415 8364 33
Width: 1190
VWidth: 0
GlyphClass: 2
Flags: W
LayerCount: 2
Fore
SplineSet
742.922860123 -21 m 0
 415.572860123 -21 246.765574111 191.657286012 203.587432148 506.108288099 c 1
 68.5874321479 506.108288099 l 1
 90.2728601233 651.431148222 l 1
 189.252004173 651.431148222 l 1
 187.681148222 667.971858037 186.82386221 764.224864296 188.39471816 782.212567852 c 1
 65.0947181603 782.212567852 l 1
 89.2728601233 924.035427975 l 1
 208.937432148 924.035427975 l 1
 266.622860123 1225.97914405 459.272860123 1440.41557411 773.587432148 1440.41557411 c 0
 907.622860123 1440.41557411 1018.43643006 1401.08014614 1103.96457202 1317.5665762 c 1
 1065.29371607 1135.10100209 l 1
 986.409290185 1230.65300626 878.881148222 1280.45400835 767.922860123 1280.45400835 c 0
 566.056283926 1280.45400835 453.783423803 1121.93743215 406.940709815 924.035427975 c 1
 987.35 924.035427975 l 1
 965.314572025 782.212567852 l 1
 386.412567852 782.212567852 l 1
 385.334425889 772.553006259 386.841711901 654.985427975 387.90528184 651.431148222 c 1
 953.842713988 651.431148222 l 1
 933.507286012 506.108288099 l 1
 402.60528184 506.108288099 l 1
 433.60528184 289.577139877 539.884425889 140.804279753 758.430146136 140.804279753 c 0
 937.24517743 140.804279753 1055.86803755 225.820584542 1082.32914405 229.459561593 c 1
 1080.82185804 78.0208559507 l 1
 979.293716074 9.33542797534 865.608288099 -21 742.922860123 -21 c 0
EndSplineSet
EndChar

StartChar: F
Encoding: 38 70 34
Width: 1103
VWidth: 0
GlyphClass: 2
Flags: W
AnchorPoint: "top" 700 1456 basechar 0
AnchorPoint: "bottom" 676 0 basechar 0
LayerCount: 2
Fore
SplineSet
187.741711901 0 m 1
 187.741711901 1456 l 1
 1027.70327767 1456 l 1
 1027.70327767 1291.70300626 l 1
 379.266847606 1291.70300626 l 1
 379.266847606 817.065845519 l 1
 982.374133618 817.065845519 l 1
 982.374133618 652.418851778 l 1
 379.266847606 652.418851778 l 1
 379.266847606 0 l 1
 187.741711901 0 l 1
EndSplineSet
EndChar

StartChar: G
Encoding: 39 71 35
Width: 1527
VWidth: 0
GlyphClass: 2
Flags: W
AnchorPoint: "top" 790 1456 basechar 0
AnchorPoint: "bottom" 826 0 basechar 0
LayerCount: 2
Fore
SplineSet
843.528141963 -22.35 m 0
 361.35 -22.35 107.507286012 267 107.507286012 701.842713988 c 0
 107.507286012 1166.53114822 438.032150308 1482.35 858.898997914 1482.35 c 0
 1053.01484343 1482.35 1208.23770356 1434.03843423 1339.23442589 1336.49271399 c 1
 1261.65 1203.37386221 l 1
 1144.64699374 1284.27586638 1015.35327767 1319.00300626 864.356283926 1319.00300626 c 0
 547.101002086 1319.00300626 306.017849692 1077.11229644 306.017849692 714.35 c 0
 306.017849692 375.95528184 474.982421716 140.646993741 850.863569938 140.646993741 c 0
 956.279144049 140.646993741 1074.5165762 158.104279753 1167.00300626 193.590709815 c 1
 1167.00300626 601.922860123 l 1
 801.937432148 601.922860123 l 1
 801.937432148 765.569853864 l 1
 1359.37085595 765.569853864 l 1
 1359.37085595 84.1927139877 l 1
 1193.17185804 7.50728601233 1013.68542798 -22.35 843.528141963 -22.35 c 0
EndSplineSet
EndChar

StartChar: H
Encoding: 40 72 40
Width: 1582
VWidth: 0
GlyphClass: 2
Flags: W
AnchorPoint: "top" 793 1456 basechar 0
AnchorPoint: "bottom" 788 0 basechar 0
LayerCount: 2
Fore
SplineSet
211.745720247 0 m 1
 211.745720247 1456 l 5
 403.270855951 1456 l 5
 403.270855951 826.412567852 l 1
 1177.03315239 826.412567852 l 1
 1177.03315239 1456 l 1
 1367.70100209 1456 l 1
 1367.70100209 0 l 1
 1178.01858037 0 l 1
 1178.01858037 665.430146136 l 1
 404.256283926 665.430146136 l 1
 404.256283926 0 l 1
 211.745720247 0 l 1
EndSplineSet
EndChar

StartChar: Hbar
Encoding: 229 294 41
Width: 1530
VWidth: 0
GlyphClass: 2
Flags: W
LayerCount: 2
Fore
SplineSet
91.4927139877 1156.09772442 m 1
 90.8427139877 1292.27586638 l 1
 1439.21985386 1292.27586638 l 1
 1439.21985386 1156.09772442 l 1
 91.4927139877 1156.09772442 l 1
EndSplineSet
Refer: 40 72 N 1 0 0 1 0 0 2
EndChar

StartChar: I
Encoding: 41 73 43
Width: 575
VWidth: 0
GlyphClass: 2
Flags: W
AnchorPoint: "top" 290 1456 basechar 0
AnchorPoint: "bottom" 286 0 basechar 0
LayerCount: 2
UndoRedoHistory
Layer: 1
Undoes
EndUndoes
Redoes
EndRedoes
EndUndoRedoHistory
Fore
SplineSet
192.079144049 0 m 1
 192.079144049 1456 l 1
 383.604279753 1456 l 1
 383.604279753 0 l 1
 192.079144049 0 l 1
EndSplineSet
EndChar

StartChar: J
Encoding: 42 74 54
Width: 704
VWidth: 0
GlyphClass: 2
Flags: W
AnchorPoint: "top" 550 1456 basechar 0
LayerCount: 2
Fore
SplineSet
180.822400854 -330.35 m 0
 74.5641127549 -330.35 -25.9786012328 -298.706283926 -65.566304789 -283.801002086 c 1
 -38.6673068753 -130.510292271 l 1
 -7.27860123275 -140.74471816 68.5286847796 -166.688434234 156.080688952 -166.688434234 c 0
 295.944258891 -166.688434234 324.321398767 -69.7238622096 324.321398767 120.629144049 c 2
 324.321398767 1456 l 1
 515.846534471 1456 l 1
 515.846534471 116.685427975 l 2
 515.846534471 -181.121858037 402.920396681 -330.35 180.822400854 -330.35 c 0
EndSplineSet
EndChar

StartChar: K
Encoding: 43 75 56
Width: 1283
VWidth: 0
GlyphClass: 2
Flags: W
AnchorPoint: "top" 667 1456 basechar 0
AnchorPoint: "bottom" 726 0 basechar 0
LayerCount: 2
Fore
SplineSet
187.741711901 0 m 1
 187.741711901 1456 l 1
 379.266847606 1456 l 1
 379.266847606 799.391711901 l 1
 1006.19899791 1456 l 1
 1243.27313153 1456 l 1
 569.549269322 755.157286012 l 1
 1290.76584552 0 l 1
 1049.37085595 0 l 1
 379.759561593 692.866576197 l 1
 379.759561593 0 l 1
 187.741711901 0 l 1
EndSplineSet
EndChar

StartChar: L
Encoding: 44 76 57
Width: 1091
VWidth: 0
GlyphClass: 2
Flags: W
AnchorPoint: "top" 580 1456 basechar 0
AnchorPoint: "bottom" 696 0 basechar 0
LayerCount: 2
Fore
SplineSet
187.741711901 0 m 1
 187.741711901 1456 l 1
 379.266847606 1456 l 1
 379.266847606 164.296993741 l 1
 1055.21684761 164.296993741 l 1
 1055.21684761 0 l 1
 187.741711901 0 l 1
EndSplineSet
EndChar

StartChar: Lslash
Encoding: 256 321 61
Width: 1130
VWidth: 0
GlyphClass: 2
Flags: W
LayerCount: 2
Fore
SplineSet
653.451002086 885.643716074 m 1
 21.7417119014 472.845720247 l 1
 21.7417119014 630.706283926 l 1
 653.451002086 1042.64699374 l 1
 653.451002086 885.643716074 l 1
EndSplineSet
Refer: 57 76 N 1 0 0 1 0 0 2
EndChar

StartChar: M
Encoding: 45 77 62
Width: 1894
VWidth: 0
GlyphClass: 2
Flags: W
AnchorPoint: "top" 970 1456 basechar 0
AnchorPoint: "bottom" 976 0 basechar 0
LayerCount: 2
Fore
SplineSet
187.741711901 0 m 1
 187.741711901 1456 l 1
 421.552275581 1456 l 1
 857.311565766 459.943987482 l 1
 948.860563679 247.374133618 l 1
 1040.25227558 463.78670147 l 1
 1476.1334238 1456 l 1
 1706.78670147 1456 l 1
 1706.78670147 0 l 1
 1525.29699374 0 l 1
 1525.29699374 1146.70601252 l 1
 1463.05628393 1004.00273485 l 1
 1017.23770356 0 l 1
 876.97613779 0 l 1
 440.293987482 987.059018777 l 1
 372.216847606 1155.62887264 l 1
 372.216847606 0 l 1
 187.741711901 0 l 1
EndSplineSet
EndChar

StartChar: N
Encoding: 46 78 63
Width: 1570
VWidth: 0
GlyphClass: 2
Flags: W
AnchorPoint: "top" 809 1456 basechar 0
AnchorPoint: "bottom" 804 0 basechar 0
LayerCount: 2
Fore
SplineSet
187.741711901 0 m 1
 187.741711901 1456 l 1
 394.709561593 1456 l 1
 1112.11557411 400.626409199 l 1
 1201.70628393 265.472129445 l 1
 1201.70628393 1456 l 1
 1382.53141963 1456 l 1
 1382.53141963 0 l 1
 1175.21356994 0 l 1
 452.650271408 1050.21630479 l 1
 366.88141963 1184.05601252 l 1
 366.88141963 0 l 1
 187.741711901 0 l 1
EndSplineSet
EndChar

StartChar: O
Encoding: 47 79 67
Width: 1627
VWidth: 0
GlyphClass: 2
Flags: W
AnchorPoint: "top" 790 1456 basechar 0
AnchorPoint: "bottom" 826 0 basechar 0
LayerCount: 2
Fore
SplineSet
814.898997914 140.646993741 m 0
 1160.78014614 140.646993741 1311.11557411 379.213569938 1311.11557411 729.685427975 c 0
 1311.11557411 1059.17814196 1160.57286012 1319.35300626 815.884425889 1319.35300626 c 0
 479.825135704 1319.35300626 312.860563679 1058.87814196 312.860563679 729.685427975 c 0
 312.860563679 378.863569938 476.996993741 140.646993741 814.898997914 140.646993741 c 0
816.234425889 -22.35 m 0
 369.213569938 -22.35 107.507286012 271.192713988 107.507286012 729.685427975 c 0
 107.507286012 1168.86356994 367.563569938 1482.35 817.077139877 1482.35 c 0
 1251.74799583 1482.35 1519.76885178 1168.70628393 1519.76885178 729.685427975 c 0
 1519.76885178 272.842713988 1260.09799583 -22.35 816.234425889 -22.35 c 0
EndSplineSet
EndChar

StartChar: OE
Encoding: 273 338 68
Width: 2048
VWidth: 0
GlyphClass: 2
Flags: W
LayerCount: 2
Fore
SplineSet
804.356283926 -23.35 m 0
 373.967849692 -35.35 107.507286012 254.003006259 107.507286012 729.492713988 c 0
 107.507286012 1173.72713988 385.534425889 1486.6082881 805.531148222 1482.65 c 1
 973.783423803 1482.67085595 1086.03542798 1428.2165762 1130.03843423 1385.21356994 c 1
 1130.03843423 1456 l 1
 1940.76557411 1456 l 1
 1940.76557411 1291.70300626 l 1
 1321.35628393 1291.70300626 l 1
 1321.35628393 828.077139877 l 1
 1903.11557411 828.077139877 l 1
 1903.11557411 663.430146136 l 1
 1322.05628393 663.430146136 l 1
 1322.05628393 164.296993741 l 1
 1970.41557411 164.296993741 l 1
 1970.41557411 0 l 1
 1130.03843423 0 l 1
 1130.03843423 95.0947181603 l 1
 1072.56985386 38.7979958274 962.590709815 -19 804.356283926 -23.35 c 0
812.670855951 136.590709815 m 0
 978.946993741 139.397995827 1076.19899791 201.017849692 1130.03843423 261.629144049 c 1
 1130.03843423 1212.2582881 l 1
 1073.40929018 1269.2165762 968.958288099 1322.2165762 805.272860123 1318.35300626 c 1
 493.094989569 1313.29672233 312.860563679 1062.11885178 312.860563679 725 c 0
 312.860563679 383.258288099 484.18141963 130.118851778 812.670855951 136.590709815 c 0
EndSplineSet
EndChar

StartChar: Omega
Encoding: 65536 937 76
Width: 1603
VWidth: 0
GlyphClass: 2
Flags: W
LayerCount: 2
Fore
SplineSet
97.6082880986 0 m 1
 77.1957202466 154.154279753 l 1
 406.762296444 152.804279753 l 1
 227.367578284 292.646993741 106.272860123 518.017849692 106.272860123 785.762567852 c 0
 106.272860123 1195.26985386 403.415574111 1457.56985386 802.258288099 1457.56985386 c 0
 1216.10100209 1457.56985386 1476.29371607 1164.56985386 1476.29371607 780.077139877 c 0
 1476.29371607 505.825135704 1331.42713988 286.311565766 1170.31156577 152.804279753 c 1
 1193.00027141 152.804279753 1454.55501043 154.154279753 1476.2582881 154.154279753 c 1
 1464.09471816 0 l 1
 933.682150308 0 l 1
 928.982150308 132.590709815 l 1
 1129.61129436 268.25528184 1277.43315239 501.346993741 1277.43315239 763.762567852 c 0
 1277.43315239 1050.84271399 1115.96757828 1301.41557411 798.101002086 1301.41557411 c 0
 507.548997914 1301.41557411 306.133423803 1083.45728601 306.133423803 768.062567852 c 0
 306.133423803 505.646993741 445.097995827 265.412567852 649.234425889 132.590709815 c 1
 652.727139877 0 l 1
 97.6082880986 0 l 1
EndSplineSet
EndChar

StartChar: Oslash
Encoding: 151 216 77
Width: 1663
VWidth: 0
GlyphClass: 2
Flags: W
LayerCount: 2
Fore
SplineSet
432.898997914 -124.192713988 m 1
 339.157286012 -73.4927139877 l 1
 1202.54899791 1559.05628393 l 1
 1296.29070982 1507.70628393 l 1
 432.898997914 -124.192713988 l 1
EndSplineSet
Refer: 67 79 N 1 0 0 1 0 0 2
EndChar

StartChar: P
Encoding: 48 80 79
Width: 1247
VWidth: 0
GlyphClass: 2
Flags: W
AnchorPoint: "top" 700 1456 basechar 0
AnchorPoint: "bottom" 676 0 basechar 0
LayerCount: 2
Fore
SplineSet
187.741711901 0 m 1
 187.741711901 1456 l 1
 604.898997914 1456 l 2
 946.091711901 1456 1177.54599165 1393.76256785 1177.54599165 1058.45100209 c 0
 1177.54599165 753.080146136 963.388705643 660.74471816 649.097995827 660.74471816 c 2
 379.266847606 660.74471816 l 1
 379.266847606 0 l 1
 187.741711901 0 l 1
379.266847606 824.391711901 m 1
 647.25528184 824.391711901 l 2
 857.842713988 824.391711901 983.65 869.020855951 983.65 1056.45100209 c 0
 983.65 1260.27286012 852.329144049 1291.00300626 609.584425889 1291.00300626 c 2
 379.266847606 1291.00300626 l 1
 379.266847606 824.391711901 l 1
EndSplineSet
EndChar

StartChar: Q
Encoding: 49 81 80
Width: 1624
VWidth: 0
GlyphClass: 2
Flags: W
LayerCount: 2
Fore
SplineSet
1222.29070982 -427.898997914 m 1
 1222.29070982 -427.898997914 1024.11256785 -240.377139877 912.213569938 -8.65 c 1
 1090.48970773 24.2135699384 l 1
 1177.31156577 -154.272860123 1340.68242172 -302.314572025 1340.68242172 -302.314572025 c 1
 1222.29070982 -427.898997914 l 1
EndSplineSet
Refer: 67 79 N 1 0 0 1 0 0 2
EndChar

StartChar: R
Encoding: 50 82 81
Width: 1335
VWidth: 0
GlyphClass: 2
Flags: W
AnchorPoint: "top" 700 1456 basechar 0
AnchorPoint: "bottom" 676 0 basechar 0
LayerCount: 2
Fore
SplineSet
187.741711901 0 m 1
 187.741711901 1456 l 1
 636.273131532 1456 l 2
 889.234697297 1456 1139.10127349 1403.30100209 1139.10127349 1068.81457202 c 0
 1139.10127349 892.398997914 1058.41584552 759.498997914 866.059561593 712.498997914 c 1
 990.90528184 673.006283926 1041.80427975 545.166847606 1095.61156577 411.187703556 c 2
 1262.88141963 0 l 1
 1056.52814196 0 l 1
 894.192713988 422.712567852 l 2
 828.706283926 594.3 791.192713988 642.264572025 624.290709815 642.264572025 c 2
 379.266847606 642.264572025 l 1
 379.266847606 0 l 1
 187.741711901 0 l 1
378.424133618 805.418851778 m 1
 630.545991655 805.418851778 l 2
 802.961565766 805.418851778 936.590709815 858.719853864 936.590709815 1053.65728601 c 0
 936.590709815 1244.89471816 842.504279753 1291.70300626 645.409561593 1291.70300626 c 2
 378.424133618 1291.70300626 l 1
 378.424133618 805.418851778 l 1
EndSplineSet
EndChar

StartChar: S
Encoding: 51 83 85
Width: 1203
VWidth: 0
GlyphClass: 2
Flags: W
AnchorPoint: "top" 604 1456 basechar 0
AnchorPoint: "bottom" 587 0 basechar 0
LayerCount: 2
Fore
SplineSet
602.741711901 -22.35 m 0
 346.916847606 -22.35 166.332421716 99.9821503082 126.629144049 141.492713988 c 1
 211.863569938 280.97613779 l 1
 262.982421716 241.385427975 417.724133618 140.646993741 598.020855951 140.646993741 c 0
 794.821858037 140.646993741 899.430146136 224.268851778 899.430146136 375.562567852 c 0
 899.430146136 529.793716074 840.178141963 589.072860123 534.097995827 676.722860123 c 0
 275.979144049 751.114572025 123.619853864 857.465574111 123.619853864 1098.48643006 c 0
 123.619853864 1355.52185804 351.607286012 1482.35 619.313569938 1482.35 c 0
 889.820855951 1482.35 1011.57814196 1378.99699374 1059.96684761 1330.29371607 c 1
 965.72613779 1200.35300626 l 1
 917.393716074 1244.03542798 803.002004173 1319.00300626 643.177139877 1319.00300626 c 0
 469.604279753 1319.00300626 325.973131532 1253.20200417 325.973131532 1103.96457202 c 0
 325.973131532 946.097995827 399.234425889 904.918851778 661.569853864 826.233423803 c 0
 1002.06256785 724.197995827 1097.76885178 605.096993741 1097.76885178 375.877139877 c 0
 1097.76885178 104.971858037 873.406283926 -22.35 602.741711901 -22.35 c 0
EndSplineSet
EndChar

StartChar: T
Encoding: 52 84 91
Width: 1144
VWidth: 0
GlyphClass: 2
Flags: W
AnchorPoint: "top" 580 1456 basechar 0
AnchorPoint: "bottom" 696 0 basechar 0
LayerCount: 2
Fore
SplineSet
474.643716074 0 m 1
 474.643716074 1291.70300626 l 1
 10.35 1291.70300626 l 1
 10.35 1456 l 1
 1134.09799583 1456 l 1
 1134.09799583 1291.70300626 l 1
 666.168851778 1291.70300626 l 1
 666.168851778 0 l 1
 474.643716074 0 l 1
EndSplineSet
EndChar

StartChar: Tbar
Encoding: 293 358 92
Width: 1144
VWidth: 0
GlyphClass: 2
Flags: W
LayerCount: 2
Fore
SplineSet
164.035699384 615.041711901 m 1
 164.035699384 761.454279753 l 1
 964.076868468 761.454279753 l 1
 964.076868468 615.041711901 l 1
 164.035699384 615.041711901 l 1
EndSplineSet
Refer: 91 84 N 1 0 0 1 0 0 2
EndChar

StartChar: Thorn
Encoding: 157 222 94
Width: 1280
VWidth: 0
GlyphClass: 2
Flags: W
LayerCount: 2
Fore
SplineSet
199.979144049 0 m 1
 199.979144049 1456 l 1
 391.154279753 1456 l 1
 391.154279753 1216.33542798 l 1
 587.548997914 1216.33542798 l 2
 928.391711901 1216.33542798 1205.05628393 1140.03542798 1205.05628393 777.664572025 c 0
 1205.05628393 471.486430062 950.471858037 341.786430062 632.471858037 341.786430062 c 2
 390.454279753 341.786430062 l 1
 390.454279753 0 l 1
 199.979144049 0 l 1
390.454279753 506.940709815 m 1
 648.213569938 506.940709815 l 2
 858.308288099 506.940709815 999.845720247 588.727139877 999.845720247 776.157286012 c 0
 999.845720247 998.902004173 843.308288099 1052.53114822 601.056283926 1052.53114822 c 2
 390.454279753 1052.53114822 l 1
 390.454279753 506.940709815 l 1
EndSplineSet
EndChar

StartChar: U
Encoding: 53 85 95
Width: 1496
VWidth: 0
GlyphClass: 2
Flags: W
AnchorPoint: "top" 656 1456 basechar 0
AnchorPoint: "bottom" 826 0 basechar 0
AnchorPoint: "ogonek" 850 0 basechar 0
LayerCount: 2
Fore
SplineSet
742.213569938 -22.35 m 0
 309.759290185 -22.35 170.821858037 224.97613779 170.821858037 557.783423803 c 2
 170.821858037 1456 l 1
 362.346993741 1456 l 1
 362.346993741 558.919853864 l 2
 362.346993741 279.35 479.044989569 140.646993741 747.178141963 140.646993741 c 0
 998.495720247 140.646993741 1133.5165762 275.035427975 1133.5165762 550.940709815 c 2
 1133.5165762 1456 l 1
 1324.3917119 1456 l 1
 1324.3917119 562.097995827 l 1
 1322.88442589 209.667849692 1150.93770356 -22.35 742.213569938 -22.35 c 0
EndSplineSet
EndChar

StartChar: V
Encoding: 54 86 106
Width: 1313
VWidth: 0
GlyphClass: 2
Flags: W
LayerCount: 2
Fore
SplineSet
557.356283926 0 m 1
 13.1927139877 1456 l 1
 227.388705643 1456 l 1
 602.157286012 395.780688952 l 1
 661.783423803 224.78670147 l 1
 722.566847606 396.080688952 l 1
 1100.52814196 1456 l 1
 1300.53141963 1456 l 1
 758.160563679 0 l 1
 557.356283926 0 l 1
EndSplineSet
EndChar

StartChar: W
Encoding: 55 87 107
Width: 1979
VWidth: 0
GlyphClass: 2
Flags: W
AnchorPoint: "top" 1023 1456 basechar 0
AnchorPoint: "bottom" 1017 0 basechar 0
LayerCount: 2
Fore
SplineSet
419.528141963 0 m 1
 21.3291440493 1456 l 1
 227.139707729 1456 l 1
 485.370855951 440.095260977 l 1
 536.468851778 215.237703556 l 1
 594.552275581 432.62340294 l 1
 900.25528184 1456 l 1
 1094.21684761 1456 l 1
 1400.74799583 432.902546989 l 1
 1461.03870564 218.566847606 l 1
 1506.48670147 423.766116928 l 1
 1761.68242172 1456 l 1
 1958.1929854 1456 l 1
 1571.29398748 0 l 1
 1347.29070982 0 l 1
 993.646993741 1201.07686847 l 1
 640.388705643 0 l 1
 419.528141963 0 l 1
EndSplineSet
EndChar

StartChar: X
Encoding: 56 88 112
Width: 1244
VWidth: 0
GlyphClass: 2
Flags: W
LayerCount: 2
Fore
SplineSet
1013.29699374 0 m 1
 618.409561593 590.017578284 l 1
 224.958559507 0 l 1
 4.04171190138 0 l 1
 509.311565766 741.314572025 l 1
 20.7834238028 1456 l 1
 251.335699384 1456 l 1
 625.080417544 899.296993741 l 1
 1000.88141963 1456 l 1
 1217.25555325 1456 l 1
 733.528413371 749.157286012 l 1
 1240.04198331 0 l 1
 1013.29699374 0 l 1
EndSplineSet
EndChar

StartChar: Y
Encoding: 57 89 113
Width: 1220
VWidth: 0
GlyphClass: 2
Flags: W
AnchorPoint: "top" 620 1456 basechar 0
AnchorPoint: "bottom" 625 0 basechar 0
LayerCount: 2
Fore
SplineSet
509.157286012 0 m 1
 509.157286012 575.136430062 l 1
 7.95828809862 1456 l 1
 218.982421716 1456 l 1
 608.062567852 741.611565766 l 1
 999.807286012 1456 l 1
 1212.72413362 1456 l 1
 700.682421716 577.786430062 l 1
 700.682421716 0 l 1
 509.157286012 0 l 1
EndSplineSet
EndChar

StartChar: Z
Encoding: 58 90 118
Width: 1177
VWidth: 0
GlyphClass: 2
Flags: W
AnchorPoint: "top" 700 1456 basechar 0
AnchorPoint: "bottom" 676 0 basechar 0
LayerCount: 2
Fore
SplineSet
91.9582880986 0 m 1
 91.9582880986 102.60528184 l 1
 830.296722333 1291.70300626 l 1
 122.415574111 1291.70300626 l 1
 122.415574111 1456 l 1
 1090.3917119 1456 l 1
 1090.3917119 1357.39471816 l 1
 347.703277667 164.296993741 l 1
 1084.07713988 164.296993741 l 1
 1084.07713988 0 l 1
 91.9582880986 0 l 1
EndSplineSet
EndChar

StartChar: a
Encoding: 65 97 122
Width: 1273
VWidth: 0
GlyphClass: 2
Flags: W
AnchorPoint: "top" 637 1026 basechar 0
AnchorPoint: "bottom" 616 0 basechar 0
AnchorPoint: "ogonek" 994 0 basechar 0
LayerCount: 2
Fore
SplineSet
952.821858037 224.514843433 m 1
 896.954178542 84.9650832426 775.505208289 -22.3284837119 601.343954362 -22.3284837119 c 0
 261.70915827 -22.3284837119 102.178141963 225.371410941 102.178141963 514.136430062 c 0
 102.178141963 813.39471816 281.712567852 1052 612.253006259 1052 c 0
 815.283152394 1052 902.321127359 920.47386221 955.492713988 832.796450925 c 1
 924.486430062 818.390166999 l 1
 924.486430062 1026 l 1
 1106.96156577 1026 l 1
 1106.96156577 0 l 1
 922.943716074 0 l 1
 922.943716074 236.707557421 l 1
 952.821858037 224.514843433 l 1
615.727139877 902.195720247 m 0
 380.845991655 902.195720247 290.160563679 722.614572025 290.160563679 515.65 c 0
 290.160563679 310.320855951 384.017849692 127.454279753 617.569853864 127.454279753 c 0
 821.569853864 127.454279753 930.979144049 288.447995827 930.979144049 522.979144049 c 0
 930.979144049 729.293716074 828.178141963 902.195720247 615.727139877 902.195720247 c 0
EndSplineSet
EndChar

StartChar: acute
Encoding: 115 180 126
Width: 607
VWidth: 0
GlyphClass: 4
Flags: W
AnchorPoint: "top" 172 1000 mark 0
LayerCount: 2
Fore
SplineSet
73.2520041726 1170.18542798 m 1
 308.314572025 1469.15782883 l 1
 545.53141963 1469.15782883 l 1
 226.433423803 1170.18542798 l 1
 73.2520041726 1170.18542798 l 1
EndSplineSet
EndChar

StartChar: ae
Encoding: 165 230 128
Width: 1791
VWidth: 0
GlyphClass: 2
Flags: W
LayerCount: 2
Fore
SplineSet
453.234425889 -26.6645720247 m 0
 657.059290185 -26.6645720247 800.643716074 80.9374321479 874.293716074 221.115574111 c 1
 942.821858037 79.6228601233 1086.78643006 -17.3854279753 1253.33542798 -22.35 c 0
 1520.2165762 -30.9791440493 1655.32914405 102.035427975 1655.32914405 102.035427975 c 1
 1599.6082881 237.154279753 l 1
 1599.6082881 237.154279753 1462.74471816 113.860563679 1259.03542798 128.311565766 c 0
 1057.97613779 142.762567852 975.534425889 276.430146136 971.178141963 459.486430062 c 1
 971.178141963 486.101002086 l 1
 1687.09471816 486.101002086 l 1
 1687.09471816 486.101002086 1688.43014614 516.765574111 1688.43014614 522.807286012 c 0
 1688.43014614 838.080146136 1533.62914405 1061.27914405 1238.11557411 1052.65 c 0
 1092.27286012 1048.33542798 967.014572025 969.898997914 894.486430062 841.311565766 c 1
 842.272860123 982.091711901 688.765574111 1052.65 553.863569938 1052.65 c 0
 334 1052.65 161.433423803 959.513569938 149.335427975 952.629144049 c 1
 204.391711901 820.72386221 l 1
 237.685699384 836.528141963 392.489707729 903.02386221 533.115574111 903.02386221 c 0
 699.216576197 903.02386221 784.181148222 786.908288099 784.531148222 615.884425889 c 1
 752.003006259 615.884425889 l 2
 375.548726505 615.884425889 78.9645720247 586.415574111 78.9645720247 284.670855951 c 0
 78.9645720247 89.65 234.65 -26.6645720247 453.234425889 -26.6645720247 c 0
476.178141963 125.154279753 m 0
 364.569853864 125.154279753 264.961565766 171.433423803 264.961565766 293.370855951 c 0
 264.961565766 446.958288099 444.919853864 486.101002086 633.335427975 486.101002086 c 2
 786.038434234 486.101002086 l 1
 785.195720247 305.219853864 698.572860123 125.154279753 476.178141963 125.154279753 c 0
973.528141963 614.548997914 m 1
 991.884425889 767.664572025 1081.87814196 903.72386221 1254.43014614 903.72386221 c 0
 1414.11229644 903.72386221 1504.62586638 794.471858037 1523.78315239 629.370855951 c 2
 1525.43315239 614.548997914 l 1
 973.528141963 614.548997914 l 1
EndSplineSet
EndChar

StartChar: ampersand
Encoding: 6 38 131
Width: 1536
VWidth: 0
GlyphClass: 2
Flags: W
LayerCount: 2
Fore
SplineSet
628.65 -23.3354279753 m 0
 345.471858037 -23.3354279753 130.451002086 136.635427975 130.451002086 410.513569938 c 0
 130.451002086 631.335427975 288.587432148 743.863569938 459.09471816 845.370855951 c 1
 365.09471816 949.370855951 296.115574111 1045.47185804 296.115574111 1179.41557411 c 0
 296.115574111 1375.27914405 446.329144049 1475.96457202 629.842713988 1475.96457202 c 0
 802.548997914 1475.96457202 976.412567852 1384.27914405 976.412567852 1185.76557411 c 0
 976.412567852 1029.29371607 844.311565766 902.171858037 700.982421716 815.821858037 c 1
 1060.80728601 421.825135704 l 1
 1140.62914405 552.003277667 1190.09471816 734.640709815 1190.09471816 902.133423803 c 1
 1359.21985386 874.391711901 l 1
 1353.39799583 670.548997914 1287.39799583 449.006283926 1179.59070982 292.513569938 c 1
 1236.90227558 234.516576197 1353.72413362 133.727139877 1493.44799583 99.5698538644 c 1
 1370.50728601 -9.87814196302 l 1
 1251.3082881 9.31457202466 1129.29699374 119.275866382 1074.65 174.101002086 c 1
 967.65 60.4572860123 824.771858037 -23.3354279753 628.65 -23.3354279753 c 0
626.842713988 136.454279753 m 0
 782.272860123 136.454279753 880.237432148 200.62613779 968.37386221 291.884425889 c 1
 561.035427975 730.09471816 l 1
 430.427139877 657.115574111 319.433423803 575.801002086 319.433423803 412.370855951 c 0
 319.433423803 252.25528184 443.762567852 136.454279753 626.842713988 136.454279753 c 0
594.548997914 919.433423803 m 1
 697 981.90528184 800.252004173 1070.19271399 800.252004173 1175.76557411 c 0
 800.252004173 1284.53114822 712.993716074 1326.31757828 637.035427975 1326.31757828 c 0
 545.427139877 1326.31757828 472.468851778 1276.88114822 472.468851778 1175.27286012 c 0
 472.468851778 1081.15728601 517.097995827 996.377139877 594.548997914 919.433423803 c 1
EndSplineSet
EndChar

StartChar: approxequal
Encoding: 424 8776 133
Width: 1351
VWidth: 0
GlyphClass: 2
Flags: W
LayerCount: 2
Fore
SplineSet
277.762567852 252.922860123 m 1
 305.569853864 353.765574111 357.691711901 418.415574111 446.964572025 418.415574111 c 0
 497.415574111 418.415574111 556.415574111 390.622860123 619.902004173 354.643716074 c 0
 727.37386221 291.836430062 807.602004173 257.643716074 888.09471816 257.643716074 c 0
 1056.29371607 257.643716074 1149.13643006 365 1185.80728601 524.041711901 c 1
 1055.99672233 557.447995827 l 1
 1017.48943632 452.797995827 970.160292271 391.590709815 893.39471816 391.590709815 c 0
 843.136430062 391.590709815 780.157286012 431.940709815 707.35 468.427139877 c 1
 628.857286012 511.077139877 541.821858037 554.569853864 448.979144049 554.569853864 c 0
 293.101002086 554.569853864 184.080146136 452.213569938 142.552004173 287.314572025 c 1
 277.762567852 252.922860123 l 1
277.60528184 620.866576197 m 1
 306.95528184 719.181148222 356.884425889 785.37386221 443.471858037 785.37386221 c 0
 495.958288099 785.37386221 551.922860123 756.72386221 615.902004173 719.059290185 c 0
 724.409290185 654.709290185 799.709290185 623.39471816 886.237432148 623.39471816 c 0
 1052.59371607 623.39471816 1148.62914405 729.115574111 1184.15728601 890 c 1
 1054.13943632 922.213569938 l 1
 1016.78943632 816.056283926 968.160292271 756.356283926 891.74471816 756.356283926 c 0
 844.943716074 756.356283926 783.293716074 782.563569938 698.664572025 832.035427975 c 0
 607.314572025 885.528141963 533.664572025 919.035427975 447.329144049 919.035427975 c 0
 289.115574111 919.035427975 178.09471816 816.679144049 140.902004173 651.937432148 c 1
 277.60528184 620.866576197 l 1
EndSplineSet
EndChar

StartChar: asciicircum
Encoding: 62 94 135
Width: 1629
VWidth: 0
GlyphClass: 2
Flags: W
LayerCount: 2
Fore
SplineSet
272.255010431 564.09471816 m 1
 753.160292271 1456 l 1
 868.486430062 1456 l 1
 1356.89899791 564.09471816 l 1
 1179.00300626 564.09471816 l 1
 808.902004173 1257.59043841 l 1
 451.786430062 564.09471816 l 1
 272.255010431 564.09471816 l 1
EndSplineSet
EndChar

StartChar: asciitilde
Encoding: 94 126 136
Width: 1251
VWidth: 0
GlyphClass: 2
Flags: W
LayerCount: 2
Fore
SplineSet
236.448267236 373.409290185 m 1
 102.623131532 437.471858037 l 1
 131.973131532 579.335427975 227.035699384 689.118851778 397.056555334 689.118851778 c 0
 476.077411285 689.118851778 571.276409199 651.062567852 656.311837174 616.391711901 c 1
 716.273131532 593.311565766 804.849269322 553.569853864 847.650271408 553.569853864 c 0
 927.065845519 553.569853864 980.937703556 640.569853864 1002.58770356 731.569853864 c 1
 1148.44826724 686.528141963 l 1
 1111.60555325 522.329144049 1009.84926932 402.415574111 847.492985396 402.415574111 c 0
 786.300271408 402.415574111 703.664843433 436.958288099 621.664843433 472.486430062 c 1
 562.353549075 496.42386221 458.842985396 539.314572025 400.899269322 539.314572025 c 0
 305.483695211 539.314572025 258.940981223 467.759290185 236.448267236 373.409290185 c 1
EndSplineSet
EndChar

StartChar: asterisk
Encoding: 10 42 137
Width: 1112
VWidth: 0
GlyphClass: 2
Flags: W
LayerCount: 2
Fore
SplineSet
718.231148222 713.296722333 m 1
 556.195720247 977.447724419 l 1
 397.824864296 719.11858037 l 1
 259.706012518 806.552004173 l 1
 453.940438407 1045.37386221 l 1
 183.412296444 1134.27286012 l 1
 238.174864296 1275.86356994 l 1
 491.804008345 1155.52814196 l 1
 461.804008345 1457.50728601 l 1
 630.964572025 1457.50728601 l 1
 615.415574111 1155.52814196 l 1
 851.136430062 1275.86356994 l 1
 919.492713988 1134.27286012 l 1
 656.293716074 1045.37386221 l 1
 857.65 799.080146136 l 1
 718.231148222 713.296722333 l 1
EndSplineSet
EndChar

StartChar: at
Encoding: 32 64 138
Width: 1767
VWidth: 0
GlyphClass: 2
Flags: W
LayerCount: 2
Fore
SplineSet
925.548997914 -87.356283926 m 0
 1142.17814196 -87.356283926 1369.80100209 -22.8844258891 1501.70628393 112.72386221 c 1
 1431.33542798 193.964572025 l 1
 1300.45100209 84.1989979137 1107.86356994 33.8844258891 934.062567852 33.8844258891 c 0
 572.810563679 33.8844258891 261.961565766 254.964572025 261.961565766 680.293716074 c 0
 261.961565766 1108.68542798 573.940709815 1353.39471816 934.783423803 1353.39471816 c 0
 1264.47185804 1353.39471816 1529.19899791 1137.42713988 1529.19899791 802.664572025 c 0
 1529.19899791 565.272860123 1397 360.198997914 1269.80427975 360.198997914 c 0
 1216.66784969 360.198997914 1196.86056368 399.60528184 1196.86056368 444.741711901 c 0
 1196.86056368 496.507286012 1207.99699374 542.486430062 1220.66784969 602.783423803 c 2
 1328.97613779 1113.33542798 l 1
 1174.10100209 1113.33542798 l 1
 1148.78643006 1002.0417119 l 1
 1122.10100209 1102 1028.38542798 1141.31457202 930.35 1141.31457202 c 0
 715.077139877 1141.31457202 491.136430062 906.397995827 481 624.65 c 0
 472.370855951 390.293716074 639.077139877 266.629144049 793.919853864 266.629144049 c 0
 924.525135704 266.629144049 1037.92613779 351.65 1082.90528184 457.178141963 c 1
 1082.90528184 317.240709815 1147.80427975 253.35 1278.66784969 253.35 c 0
 1474.18141963 253.35 1659.96156577 499.133423803 1659.96156577 797.664572025 c 0
 1659.96156577 1195.54271399 1341.41885178 1479.19271399 933.90528184 1479.19271399 c 0
 494 1479.19271399 107.507286012 1173.7 107.507286012 681.801002086 c 0
 107.507286012 206.136430062 467 -87.356283926 925.548997914 -87.356283926 c 0
811.118851778 408.290709815 m 0
 714.003277667 408.290709815 649.374133618 483.091711901 649.374133618 592.35 c 0
 649.374133618 775.958288099 775.747995827 1012.8248643 944.198997914 1012.8248643 c 0
 1043.62914405 1012.8248643 1099.29371607 932.572860123 1099.29371607 825.471858037 c 0
 1099.29371607 616.863569938 966.569853864 408.290709815 811.118851778 408.290709815 c 0
EndSplineSet
EndChar

StartChar: b
Encoding: 66 98 140
Width: 1267
VWidth: 0
GlyphClass: 2
Flags: W
AnchorPoint: "top" 790 1026 basechar 0
AnchorPoint: "bottom" 826 0 basechar 0
LayerCount: 2
Fore
SplineSet
707.664572025 -22.35 m 0
 529.269853864 -22.35 405.097995827 73.1155741109 356.590709815 173.531148222 c 1
 354.87613779 0 l 1
 167.572860123 0 l 1
 169.608288099 59.7035490754 174.922860123 238.685427975 174.922860123 270.492713988 c 2
 174.922860123 1483.92286012 l 1
 358.383423803 1483.92286012 l 1
 358.383423803 856.727139877 l 1
 409.6 956.39471816 532.09471816 1052 707.878141963 1052 c 0
 987.234425889 1052 1172.37085595 851.272860123 1172.37085595 531.786430062 c 0
 1172.37085595 189.178141963 979.151002086 -22.35 707.664572025 -22.35 c 0
685.430146136 127.454279753 m 0
 877.587432148 127.454279753 981.017578284 281.189707729 981.017578284 533.115574111 c 0
 981.017578284 749.053006259 866.922860123 902.195720247 678.786430062 902.195720247 c 0
 478.828141963 902.195720247 355.077139877 746.688434234 355.077139877 515 c 0
 355.077139877 279.682421716 480.979144049 127.454279753 685.430146136 127.454279753 c 0
EndSplineSet
EndChar

StartChar: backslash
Encoding: 60 92 141
Width: 738
VWidth: 0
GlyphClass: 2
Flags: W
LayerCount: 2
Fore
SplineSet
563.471858037 -22.1959916548 m 1
 -18.1575574206 1456 l 1
 172.388434234 1456 l 1
 751.525135704 -22.1959916548 l 1
 563.471858037 -22.1959916548 l 1
EndSplineSet
EndChar

StartChar: bar
Encoding: 92 124 142
Width: 954
VWidth: 0
GlyphClass: 2
Flags: W
LayerCount: 2
Fore
SplineSet
389.488893504 -482.430146136 m 1
 389.488893504 1535.93743215 l 1
 565.314029208 1535.93743215 l 1
 565.314029208 -482.430146136 l 1
 389.488893504 -482.430146136 l 1
EndSplineSet
EndChar

StartChar: braceleft
Encoding: 91 123 143
Width: 734
VWidth: 0
GlyphClass: 2
Flags: W
LayerCount: 2
Fore
SplineSet
643.275866382 -229.76858037 m 1
 419.275594974 -223.946722333 261.275866382 -132.800730678 261.275866382 63.905553248 c 2
 261.275866382 313.629415458 l 2
 261.275866382 444.371127359 209.154008345 542.510563679 69.2728601233 554.804279753 c 1
 69.2728601233 689.587703556 l 1
 183.759290185 697.566847606 260.483152394 777.646993741 261.133152394 906.940709815 c 2
 261.133152394 1150.67085595 l 2
 261.133152394 1345.16356994 381.88716074 1474.68242172 644.11858037 1474.68242172 c 1
 644.11858037 1332.03542798 l 1
 530.706012518 1329.87814196 447.629144049 1276.07386221 447.629144049 1143.1748643 c 2
 447.629144049 870.471858037 l 2
 447.629144049 730.611565766 354.041711901 652.367849692 248.825135704 620.017849692 c 1
 366.178141963 576.825135704 447.629144049 461.513841347 447.629144049 354.866847606 c 2
 447.629144049 122.747995827 l 2
 447.629144049 -46.7622964438 531.902004173 -87.1215866287 643.275866382 -87.4715866287 c 1
 643.275866382 -229.76858037 l 1
EndSplineSet
EndChar

StartChar: braceright
Encoding: 93 125 144
Width: 754
VWidth: 0
GlyphClass: 2
Flags: W
LayerCount: 2
Fore
SplineSet
106.685427975 -229.76858037 m 1
 106.685427975 -87.1215866287 l 1
 220.097995827 -84.9643006164 303.174864296 -31.3673068753 303.174864296 101.531691038 c 2
 303.174864296 374.234697297 l 2
 303.174864296 514.094989569 396.762296444 592.338705643 501.978872641 624.688705643 c 1
 384.625866382 667.88141963 303.174864296 783.192713988 303.174864296 889.839707729 c 2
 303.174864296 1121.95855951 l 2
 303.174864296 1291.46885178 218.902004173 1331.82814196 107.528141963 1332.17814196 c 1
 107.528141963 1474.68242172 l 1
 331.528413371 1468.86056368 489.528141963 1377.50728601 489.528141963 1180.80100209 c 2
 489.528141963 931.077139877 l 2
 489.528141963 800.335427975 541.65 702.195991655 681.531148222 689.902275581 c 1
 681.531148222 555.118851778 l 1
 567.04471816 547.139707729 490.528141963 467.059561593 489.878141963 337.765845519 c 2
 489.878141963 94.0356993836 l 2
 489.878141963 -100.457014604 368.916847606 -229.76858037 106.685427975 -229.76858037 c 1
EndSplineSet
EndChar

StartChar: bracketleft
Encoding: 59 91 145
Width: 661
VWidth: 0
GlyphClass: 2
Flags: W
LayerCount: 2
Fore
SplineSet
171.237432148 -230.961294357 m 1
 171.237432148 1467.09799583 l 1
 581.608288099 1467.09799583 l 1
 581.608288099 1328.94371607 l 1
 355.097995827 1328.94371607 l 1
 355.097995827 -92.807014604 l 1
 582.608288099 -92.807014604 l 1
 582.608288099 -230.961294357 l 1
 171.237432148 -230.961294357 l 1
EndSplineSet
EndChar

StartChar: bracketright
Encoding: 61 93 146
Width: 661
VWidth: 0
GlyphClass: 2
Flags: W
LayerCount: 2
Fore
SplineSet
126.552004173 -230.961294357 m 1
 126.552004173 -92.807014604 l 1
 351.726868468 -92.807014604 l 1
 351.726868468 1328.94371607 l 1
 125.902004173 1328.94371607 l 1
 125.902004173 1467.09799583 l 1
 535.937432148 1467.09799583 l 1
 535.937432148 -230.961294357 l 1
 126.552004173 -230.961294357 l 1
EndSplineSet
EndChar

StartChar: breve
Encoding: 365 728 147
Width: 614
VWidth: 0
GlyphClass: 4
Flags: W
AnchorPoint: "top" 327 1000 mark 0
LayerCount: 2
Fore
SplineSet
309.27613779 1196.55200417 m 0
 138.377139877 1196.55200417 44.8572860123 1275.58743215 31.5072860123 1456 c 1
 162.783423803 1456 l 1
 169.27613779 1357.47185804 225.632421716 1327.17814196 309.27613779 1327.17814196 c 0
 392.919853864 1327.17814196 442.261565766 1361.13643006 453.768851778 1456 c 1
 583.252275581 1456 l 1
 570.759561593 1277.74471816 474.353277667 1196.55200417 309.27613779 1196.55200417 c 0
EndSplineSet
EndChar

StartChar: brokenbar
Encoding: 101 166 148
Width: 500
VWidth: 0
GlyphClass: 2
Flags: W
LayerCount: 2
Fore
SplineSet
155.566576197 -482.430146136 m 1
 155.566576197 398.198997914 l 1
 331.884425889 398.198997914 l 1
 331.884425889 -482.430146136 l 1
 155.566576197 -482.430146136 l 1
154.866576197 650.447724419 m 1
 154.866576197 1535.93743215 l 1
 331.391711901 1535.93743215 l 1
 331.391711901 650.447724419 l 1
 154.866576197 650.447724419 l 1
EndSplineSet
EndChar

StartChar: bullet
Encoding: 408 8226 149
Width: 989
VWidth: 0
GlyphClass: 2
Flags: W
LayerCount: 2
Fore
SplineSet
493 378.608288099 m 0
 301.643716074 378.608288099 167.643716074 522.136430062 167.643716074 691.329144049 c 0
 167.643716074 864.521858037 308.964572025 1010 493 1010 c 0
 680.863569938 1010 822.213569938 862.014572025 822.213569938 691.329144049 c 0
 822.213569938 518.486430062 679.035427975 378.608288099 493 378.608288099 c 0
EndSplineSet
EndChar

StartChar: c
Encoding: 67 99 150
Width: 1031
VWidth: 0
GlyphClass: 2
Flags: W
AnchorPoint: "top" 597 1026 basechar 0
AnchorPoint: "bottom" 599 0 basechar 0
LayerCount: 2
Fore
SplineSet
618.677139877 -22.35 m 0
 305.771858037 -22.35 99.478141963 192.433423803 99.478141963 505.528141963 c 0
 99.478141963 834.451002086 313.564572025 1052 624.148997914 1052 c 0
 758.57613779 1052 874.896993741 1009.66457202 954.932421716 930.801002086 c 1
 890.55528184 808.860292271 l 1
 828.747995827 863.017578284 736.418851778 901.545720247 635.712567852 901.545720247 c 0
 453.163569938 901.545720247 290.338705643 782.504008345 290.338705643 507.035427975 c 0
 290.338705643 273.133423803 421.282421716 127.454279753 628.418851778 127.454279753 c 0
 741.145991655 127.454279753 842.104279753 169.024133618 907.534425889 219.139707729 c 1
 965.083423803 88.1927139877 l 1
 874.198997914 17.6645720247 760.677139877 -22.35 618.677139877 -22.35 c 0
EndSplineSet
EndChar

StartChar: caron
Encoding: 363 711 152
Width: 699
VWidth: 0
GlyphClass: 4
Flags: W
AnchorPoint: "top" 352 1000 mark 0
LayerCount: 2
Fore
SplineSet
266.529144049 1155.03843423 m 1
 16.7301461356 1482.15227558 l 1
 191.9 1482.15227558 l 1
 342.756283926 1294.74572025 l 1
 497.948997914 1482.15227558 l 1
 682.619853864 1482.15227558 l 1
 434.378141963 1155.03843423 l 1
 266.529144049 1155.03843423 l 1
EndSplineSet
EndChar

StartChar: cedilla
Encoding: 119 184 157
Width: 529
VWidth: 0
GlyphClass: 4
Flags: W
AnchorPoint: "bottom" 280 0 mark 0
LayerCount: 2
Fore
SplineSet
45.2374321479 -373.799269322 m 1
 58.5874321479 -278.38670147 l 1
 72.3854279753 -283.192985396 161.209290185 -307.058559507 218.802004173 -307.058559507 c 0
 299.855010431 -307.058559507 322.958288099 -273.079415458 322.958288099 -237.324133618 c 0
 322.958288099 -197.694989569 287.664572025 -164.798997914 162.471858037 -164.798997914 c 2
 140.958288099 -164.798997914 l 1
 173.258288099 20.8635699384 l 1
 269.178141963 20.8635699384 l 1
 250.528141963 -95.1135699384 l 1
 389.468851778 -108.798997914 477.412567852 -148.258559507 477.412567852 -243.18141963 c 0
 477.412567852 -340.979415458 386.34471816 -407.057557421 225.430146136 -407.057557421 c 0
 147.827139877 -407.057557421 54.3469937411 -376.519123186 45.2374321479 -373.799269322 c 1
EndSplineSet
EndChar

StartChar: cent
Encoding: 97 162 158
Width: 1029
VWidth: 0
GlyphClass: 2
Flags: W
LayerCount: 2
Fore
SplineSet
572.670855951 -212.919853864 m 1
 572.670855951 1251.50728601 l 1
 671.219853864 1251.50728601 l 1
 671.219853864 -212.919853864 l 1
 572.670855951 -212.919853864 l 1
EndSplineSet
Refer: 150 99 N 1 0 0 1 0 0 2
EndChar

StartChar: circumflex
Encoding: 362 710 159
Width: 699
VWidth: 0
GlyphClass: 4
Flags: W
AnchorPoint: "top" 355 1000 mark 0
LayerCount: 2
Fore
SplineSet
264.987432148 1484.5751357 m 1
 29.8957202466 1155.03843423 l 1
 178.662567852 1155.03843423 l 1
 345.170855951 1332.22313153 l 1
 511.186430062 1155.03843423 l 1
 668.596993741 1155.03843423 l 1
 431.40528184 1484.5751357 l 1
 264.987432148 1484.5751357 l 1
EndSplineSet
EndChar

StartChar: colon
Encoding: 26 58 160
Width: 540
VWidth: 0
GlyphClass: 2
Flags: W
LayerCount: 2
Fore
SplineSet
151.821858037 -3.85 m 1
 151.821858037 220.618851778 l 1
 388.839707729 220.618851778 l 1
 388.839707729 -3.85 l 1
 151.821858037 -3.85 l 1
151.821858037 872.850730678 m 1
 151.821858037 1097.11229644 l 1
 388.489707729 1097.11229644 l 1
 388.839707729 872.850730678 l 1
 151.821858037 872.850730678 l 1
EndSplineSet
EndChar

StartChar: comma
Encoding: 12 44 161
Width: 486
VWidth: 0
GlyphClass: 4
Flags: W
LayerCount: 2
Fore
SplineSet
71.9582880986 -245.217849692 m 1
 179.943716074 221.468851778 l 1
 388.646993741 221.468851778 l 1
 221.783423803 -245.217849692 l 1
 71.9582880986 -245.217849692 l 1
EndSplineSet
EndChar

StartChar: commaaccent
Encoding: 65537 -1 162
Width: 540
VWidth: 0
GlyphClass: 4
Flags: W
AnchorPoint: "bottom" 288 0 mark 0
LayerCount: 2
Fore
SplineSet
111.409290185 -606.433423803 m 1
 219.74471816 -133.528141963 l 1
 428.590709815 -133.528141963 l 1
 261.584425889 -606.433423803 l 1
 111.409290185 -606.433423803 l 1
EndSplineSet
EndChar

StartChar: copyright
Encoding: 104 169 163
Width: 1728
VWidth: 0
GlyphClass: 2
Flags: W
LayerCount: 2
Fore
SplineSet
452.501002086 720.864572025 m 0
 452.501002086 994.787432148 630.79471816 1175.65100209 889.501002086 1175.65100209 c 0
 1001.24271399 1175.65100209 1099.22814196 1140.66557411 1164.91356994 1074.78743215 c 1
 1111.87185804 974.024864296 l 1
 1060.06457202 1018.53215031 982.735427975 1050.36029227 898.364572025 1050.36029227 c 0
 747.501002086 1050.36029227 611.147995827 952.161294357 611.147995827 721.514572025 c 0
 611.147995827 528.76757524 714.687558274 401.933121989 893.314372944 401.933121989 c 0
 990.346498934 401.933121989 1074.3048311 438.299334369 1125.34371607 477.787703556 c 1
 1173.7 367.110563679 l 1
 1099.66921378 311.019170003 1006.8031564 277.001589899 884.982147265 277.001589899 c 0
 616.457573533 277.001589899 452.501002086 458.651859189 452.501002086 720.864572025 c 0
863.821858037 1484.50728601 m 0
 447.664572025 1484.50728601 107.507286012 1144.35 107.507286012 728.192713988 c 0
 107.507286012 312.035427975 447.664572025 -28.471858037 863.821858037 -28.471858037 c 0
 1279.97914405 -28.471858037 1620.78643006 312.035427975 1620.78643006 728.192713988 c 0
 1620.78643006 1144.35 1279.97914405 1484.50728601 863.821858037 1484.50728601 c 0
864.121858037 72.7417119014 m 0
 509.142713988 72.7417119014 224.863569938 370.213569938 224.863569938 724.335427975 c 0
 224.863569938 1079.31457202 509.142713988 1376.78643006 864.121858037 1376.78643006 c 0
 1218.10100209 1376.78643006 1502.93743215 1079.31457202 1502.93743215 724.335427975 c 0
 1502.93743215 370.213569938 1218.10100209 72.7417119014 864.121858037 72.7417119014 c 0
EndSplineSet
EndChar

StartChar: currency
Encoding: 99 164 164
Width: 1218
VWidth: 0
GlyphClass: 2
Flags: W
LayerCount: 2
Fore
SplineSet
1048 544.507286012 m 1
 862 730.507286012 l 1
 794 674.507286012 706 640.507286012 610 640.507286012 c 0
 514 640.507286012 426 674.507286012 358 731.507286012 c 1
 171 544.507286012 l 1
 120 595.507286012 l 1
 307 782.507286012 l 1
 252 848.507286012 219 932.507286012 219 1025.50728601 c 0
 219 1122.50728601 255 1210.50728601 314 1277.50728601 c 1
 119 1472.50728601 l 1
 170 1523.50728601 l 1
 367 1327.50728601 l 1
 433 1379.50728601 518 1410.50728601 610 1410.50728601 c 0
 702 1410.50728601 786 1379.50728601 853 1328.50728601 c 1
 1048 1523.50728601 l 1
 1099 1472.50728601 l 1
 906 1279.50728601 l 1
 966 1211.50728601 1002 1123.50728601 1002 1025.50728601 c 0
 1002 932.507286012 969 847.507286012 913 780.507286012 c 1
 1099 595.507286012 l 1
 1048 544.507286012 l 1
609 711.507286012 m 0
 783 711.507286012 911 850.664572025 911 1024.66457202 c 0
 911 1198.66457202 783 1332.50728601 609 1332.50728601 c 0
 435 1332.50728601 307 1198.66457202 307 1024.66457202 c 0
 307 850.664572025 435 711.507286012 609 711.507286012 c 0
EndSplineSet
EndChar

StartChar: d
Encoding: 68 100 165
Width: 1264
VWidth: 0
GlyphClass: 2
Flags: W
AnchorPoint: "top" 790 1026 basechar 0
AnchorPoint: "bottom" 826 0 basechar 0
LayerCount: 2
Fore
SplineSet
574.35 -22.35 m 0
 299.406283926 -22.35 100.178141963 181.142713988 100.178141963 506.492713988 c 0
 100.178141963 830.04471816 282.643716074 1052 581.863569938 1052 c 0
 748.685427975 1052 868.165574111 964 908.302004173 875.27613779 c 1
 908.302004173 1483.92286012 l 1
 1091.76256785 1483.92286012 l 1
 1091.76256785 260.356283926 l 2
 1092.41256785 194.475135704 1094.06256785 115.350271408 1098.25528184 0 c 1
 911.39471816 0 l 1
 908.09471816 170.709290185 l 1
 868.643716074 75.8427139877 758.685427975 -22.35 574.35 -22.35 c 0
597.919853864 127.454279753 m 0
 796.548997914 127.454279753 910.780146136 279.682421716 910.780146136 526.643716074 c 0
 910.780146136 743.881148222 797.878141963 902.195720247 604.391711901 902.195720247 c 0
 408.747995827 902.195720247 291.53141963 744.531148222 291.53141963 509.178141963 c 0
 291.53141963 280.982421716 404.25528184 127.454279753 597.919853864 127.454279753 c 0
EndSplineSet
EndChar

StartChar: dagger
Encoding: 406 8224 166
Width: 1022
VWidth: 0
GlyphClass: 2
Flags: W
LayerCount: 2
Fore
SplineSet
423.237432148 110.964572025 m 1
 423.237432148 917.703006259 l 1
 97.2374321479 917.703006259 l 1
 97.2374321479 1065.50728601 l 1
 423.237432148 1065.50728601 l 1
 423.237432148 1443.41557411 l 1
 578.513569938 1443.41557411 l 1
 578.513569938 1065.50728601 l 1
 919 1065.50728601 l 1
 919 917.703006259 l 1
 568.584425889 917.703006259 l 1
 568.584425889 110.964572025 l 1
 423.237432148 110.964572025 l 1
EndSplineSet
EndChar

StartChar: daggerdbl
Encoding: 407 8225 167
Width: 1085
VWidth: 0
GlyphClass: 2
Flags: W
LayerCount: 2
Fore
SplineSet
465.898997914 -51.0979958274 m 1
 465.898997914 421.296722333 l 1
 125.548997914 421.296722333 l 1
 125.548997914 543.958288099 l 1
 465.898997914 543.958288099 l 1
 465.898997914 936.038434234 l 1
 131.056283926 936.038434234 l 1
 131.056283926 1064.19271399 l 1
 465.898997914 1064.19271399 l 1
 465.898997914 1456 l 1
 621.709561593 1456 l 1
 621.709561593 1064.19271399 l 1
 959.845991655 1064.19271399 l 1
 959.845991655 936.038434234 l 1
 621.709561593 936.038434234 l 1
 621.709561593 543.958288099 l 1
 952.353277667 543.958288099 l 1
 952.353277667 421.296722333 l 1
 622.566847606 421.296722333 l 1
 622.566847606 -51.0979958274 l 1
 465.898997914 -51.0979958274 l 1
EndSplineSet
EndChar

StartChar: dblgravecmb
Encoding: 372 783 168
Width: 969
VWidth: 0
GlyphClass: 4
Flags: W
AnchorPoint: "top" 612 1000 mark 0
LayerCount: 2
Fore
SplineSet
429 1174 m 1
 153 1487 l 1
 329 1487 l 1
 549 1174 l 1
 429 1174 l 1
698 1174 m 1
 423 1487 l 1
 599 1487 l 1
 816 1174 l 1
 698 1174 l 1
EndSplineSet
EndChar

StartChar: dcroat
Encoding: 208 273 170
Width: 1258
VWidth: 0
GlyphClass: 2
Flags: W
LayerCount: 2
Fore
SplineSet
587.213569938 1216.68843423 m 1
 587.213569938 1358.40929018 l 1
 1199.0417119 1358.40929018 l 1
 1199.0417119 1216.68843423 l 1
 587.213569938 1216.68843423 l 1
EndSplineSet
Refer: 165 100 N 1 0 0 1 0 0 2
EndChar

StartChar: degree
Encoding: 111 176 171
Width: 854
VWidth: 0
GlyphClass: 2
Flags: W
LayerCount: 2
Fore
SplineSet
427.056283926 1449.19899791 m 0
 254.548997914 1449.19899791 123.035427975 1316.21356994 123.035427975 1151.68542798 c 0
 123.035427975 986.807286012 255.406283926 853.664572025 427.056283926 853.664572025 c 0
 599.056283926 853.664572025 731.077139877 986.807286012 731.077139877 1151.68542798 c 0
 731.077139877 1316.21356994 599.706283926 1449.19899791 427.056283926 1449.19899791 c 0
427.056283926 966.548997914 m 0
 314.95528184 966.548997914 247.062567852 1051.82814196 247.062567852 1152.33542798 c 0
 247.062567852 1252.49271399 317.112567852 1335.82185804 427.056283926 1335.82185804 c 0
 537.7 1335.82185804 607.335427975 1252.49271399 607.335427975 1152.33542798 c 0
 607.335427975 1051.82814196 539.857286012 966.548997914 427.056283926 966.548997914 c 0
EndSplineSet
EndChar

StartChar: dieresis
Encoding: 103 168 172
Width: 743
VWidth: 0
GlyphClass: 4
Flags: W
AnchorPoint: "top" 368 1000 mark 0
LayerCount: 2
Fore
SplineSet
101.528872641 1162.94799583 m 1
 101.528872641 1337.60655533 l 1
 284.510292271 1337.60655533 l 1
 284.510292271 1162.94799583 l 1
 101.528872641 1162.94799583 l 1
458.646993741 1162.94799583 m 1
 458.646993741 1337.60655533 l 1
 641.278413371 1337.60655533 l 1
 641.278413371 1162.94799583 l 1
 458.646993741 1162.94799583 l 1
EndSplineSet
EndChar

StartChar: divide
Encoding: 182 247 173
Width: 1284
VWidth: 0
GlyphClass: 2
Flags: W
LayerCount: 2
Fore
SplineSet
519.611565766 11.5874321479 m 1
 756.48670147 11.5874321479 l 1
 756.13670147 236.198997914 l 1
 519.611565766 236.198997914 l 1
 519.611565766 11.5874321479 l 1
151.548997914 476.430146136 m 1
 1115.54926932 476.430146136 l 1
 1115.54926932 631.584425889 l 1
 151.548997914 631.584425889 l 1
 151.548997914 476.430146136 l 1
518.97613779 865.272860123 m 1
 755.293987482 865.272860123 l 1
 755.293987482 1089.7417119 l 1
 518.97613779 1089.7417119 l 1
 518.97613779 865.272860123 l 1
EndSplineSet
EndChar

StartChar: dollar
Encoding: 4 36 174
Width: 1196
VWidth: 0
GlyphClass: 2
Flags: W
LayerCount: 2
Fore
SplineSet
570.198997914 -198.391711901 m 1
 570.198997914 1632.82185804 l 1
 685.821858037 1632.82185804 l 1
 685.821858037 -198.391711901 l 1
 570.198997914 -198.391711901 l 1
EndSplineSet
Refer: 85 83 N 1 0 0 1 0 0 2
EndChar

StartChar: dotaccent
Encoding: 366 729 175
Width: 524
VWidth: 0
GlyphClass: 4
Flags: W
AnchorPoint: "top" 315 1000 mark 0
LayerCount: 2
Fore
SplineSet
170.237432148 1277.54572025 m 1
 170.237432148 1456 l 1
 353.762567852 1456 l 1
 353.762567852 1277.54572025 l 1
 170.237432148 1277.54572025 l 1
EndSplineSet
EndChar

StartChar: dotaccentcmb
Encoding: 371 775 176
Width: 524
VWidth: 0
GlyphClass: 4
Flags: W
AnchorPoint: "top" 315 1000 mark 0
LayerCount: 2
Fore
SplineSet
184 1246 m 1
 182 1409 l 1
 339 1409 l 1
 342 1246 l 1
 184 1246 l 1
EndSplineSet
EndChar

StartChar: dotlessi
Encoding: 240 305 177
Width: 488
VWidth: 0
GlyphClass: 2
Flags: W
AnchorPoint: "top" 248 1026 basechar 0
LayerCount: 2
Fore
SplineSet
145.409561593 0 m 1
 144.552275581 1026 l 1
 329.570125273 1026 l 1
 330.427411285 0 l 1
 145.409561593 0 l 1
EndSplineSet
EndChar

StartChar: dotlessj
Encoding: 361 567 178
Width: 503
VWidth: 0
GlyphClass: 2
Flags: W
AnchorPoint: "top" 259 1026 basechar 0
LayerCount: 2
Fore
SplineSet
22.4 -418.25 m 0
 -16.35 -418.25 -60.85 -414.85 -112.55 -404.45 c 1
 -113.2 -241.5 l 1
 -66.7 -251.3 -37.95 -254.65 -17.65 -254.65 c 0
 96.95 -254.65 158.55 -162.55 158.55 41.85 c 2
 158.55 1026 l 1
 348.05 1026 l 1
 348.05 102.5 l 2
 348.05 -127.05 315.85 -418.25 22.4 -418.25 c 0
EndSplineSet
EndChar

StartChar: e
Encoding: 69 101 179
Width: 1168
VWidth: 0
GlyphClass: 2
Flags: W
AnchorPoint: "top" 608 1026 basechar 0
AnchorPoint: "bottom" 656 0 basechar 0
AnchorPoint: "ogonek" 869 56 basechar 0
LayerCount: 2
Fore
SplineSet
642.242713988 -22.35 m 0
 310.335427975 -22.35 99.8417119014 186.863569938 99.8417119014 510.492713988 c 0
 99.8417119014 828.237432148 303.742713988 1052 611.478141963 1052 c 0
 904.20528184 1052 1067.5082881 837.080146136 1067.5082881 537.115574111 c 0
 1067.5082881 534.09471816 1066.5082881 518.902004173 1064.66557411 486.943716074 c 1
 292.816847606 486.943716074 l 1
 296.502275581 251.513569938 443.925135704 127.454279753 649.948997914 127.454279753 c 0
 774.357286012 127.454279753 883.929144049 165.168851778 977 242.97613779 c 1
 1032.51356994 106.35 l 1
 928.421858037 20.5072860123 794.95 -22.35 642.242713988 -22.35 c 0
297.466847606 615.391711901 m 1
 904.446722333 615.391711901 l 1
 886.254008345 807.622860123 769.722860123 904.37386221 613.991711901 904.37386221 c 0
 448.346993741 904.37386221 324.152275581 800.430146136 297.466847606 615.391711901 c 1
EndSplineSet
EndChar

StartChar: eight
Encoding: 24 56 187
Width: 1232
VWidth: 0
GlyphClass: 2
Flags: W
LayerCount: 2
Fore
SplineSet
616.688068895 -23 m 0
 359.610929018 -23 135.789070982 121.178141963 135.789070982 379.706283926 c 0
 135.789070982 559.507286012 241.260929018 697.471858037 427.655647179 763.35 c 1
 267.910929018 823.863569938 168.596356994 942.35 168.596356994 1110.48643006 c 0
 168.596356994 1345.01457202 364.946356994 1483 615.00264092 1483 c 0
 871.60792276 1483 1064.04435282 1343.32914405 1064.04435282 1107.9582881 c 0
 1064.04435282 939.471858037 966.415208772 821.192713988 805.827776624 762.507286012 c 1
 988.708924846 698.171858037 1096.55163883 556.486430062 1096.55163883 377.878141963 c 0
 1096.55163883 119.7 869.023496871 -23 616.688068895 -23 c 0
615.845354908 139.139707729 m 0
 786.625501043 139.139707729 905.533789142 225.60528184 905.533789142 392.706283926 c 0
 905.533789142 545.115574111 784.240073068 647.471858037 617.180782883 683.629144049 c 1
 449.100636747 647.964572025 327.299634661 548.279144049 327.299634661 391.863569938 c 0
 327.299634661 227.783423803 446.429780797 139.139707729 615.845354908 139.139707729 c 0
615.495354908 842.056283926 m 1
 781.04735908 877.898997914 876.691075154 966.563569938 876.691075154 1106.82185804 c 0
 876.691075154 1248.37386221 756.418215031 1325.1748643 615.145354908 1325.1748643 c 0
 473.694352821 1325.1748643 355.456920673 1249.35929018 355.456920673 1103.94371607 c 0
 355.456920673 965.863569938 451.100636747 877.056283926 615.495354908 842.056283926 c 1
EndSplineSet
EndChar

StartChar: ellipsis
Encoding: 409 8230 188
Width: 1620
VWidth: 0
GlyphClass: 2
Flags: W
LayerCount: 2
Fore
SplineSet
148.39471816 -11 m 1
 148.39471816 213.468851778 l 1
 385.412567852 213.468851778 l 1
 385.762567852 -11 l 1
 148.39471816 -11 l 1
684.038434234 -11 m 1
 684.038434234 213.468851778 l 1
 921.056283926 213.468851778 l 1
 921.198997914 -11 l 1
 684.038434234 -11 l 1
1219.68215031 -11 m 1
 1219.68215031 213.468851778 l 1
 1456 213.468851778 l 1
 1456 -11 l 1
 1219.68215031 -11 l 1
EndSplineSet
EndChar

StartChar: emdash
Encoding: 399 8212 190
Width: 2171
VWidth: 0
GlyphClass: 2
Flags: W
LayerCount: 2
Fore
SplineSet
1.29498956854 480.430146136 m 1
 1.29498956854 633.584425889 l 1
 2157.70300626 633.584425889 l 1
 2157.70300626 480.430146136 l 1
 1.29498956854 480.430146136 l 1
EndSplineSet
EndChar

StartChar: endash
Encoding: 398 8211 191
Width: 1076
VWidth: 0
GlyphClass: 2
Flags: W
LayerCount: 2
Fore
SplineSet
-11.6102922712 480.430146136 m 1
 -11.6102922712 633.584425889 l 1
 1081.90327767 633.584425889 l 1
 1081.90327767 480.430146136 l 1
 -11.6102922712 480.430146136 l 1
EndSplineSet
EndChar

StartChar: eng
Encoding: 266 331 192
Width: 1235
VWidth: 0
GlyphClass: 2
Flags: W
LayerCount: 2
Fore
SplineSet
244.958288099 -348.513569938 m 1
 267.471858037 -197.09471816 l 1
 399.015042271 -232.540198222 508.788744357 -251.08546221 597.76158037 -251.08546221 c 0
 818.501752703 -251.08546221 895.925866382 -133.673947914 895.925866382 101.195720247 c 2
 895.925866382 547.996993741 l 2
 895.925866382 768.706283926 862.747724419 901.545720247 667.258288099 901.545720247 c 0
 493.825135704 901.545720247 361.27613779 748.041711901 360.62613779 643.080146136 c 2
 360.62613779 0 l 1
 175.958288099 0 l 1
 175.958288099 744.86329853 l 2
 175.958288099 896.801002086 166.587432148 1026 166.587432148 1026 c 1
 356.27613779 1026 l 1
 359.290709815 882.664572025 l 1
 434.091711901 995.857286012 562.747995827 1051.35 702.314572025 1051.35 c 0
 984.174864296 1051.35 1080.80100209 867.388705643 1080.80100209 558.427139877 c 2
 1080.80100209 130.608288099 l 2
 1080.80100209 -206.581617852 951.238576505 -396.622427975 602.273844357 -396.622427975 c 0
 502.254586321 -396.622427975 383.580720247 -380.999991963 244.958288099 -348.513569938 c 1
EndSplineSet
EndChar

StartChar: equal
Encoding: 29 61 194
Width: 1288
VWidth: 0
GlyphClass: 2
Flags: W
LayerCount: 2
Fore
SplineSet
171.118851778 293.09471816 m 1
 171.118851778 445.056283926 l 1
 1117.8846973 445.056283926 l 1
 1117.8846973 293.09471816 l 1
 171.118851778 293.09471816 l 1
170.468851778 683.801002086 m 1
 170.468851778 836.762567852 l 1
 1116.74198331 836.762567852 l 1
 1116.74198331 683.801002086 l 1
 170.468851778 683.801002086 l 1
EndSplineSet
EndChar

StartChar: eth
Encoding: 175 240 195
Width: 1223
VWidth: 0
GlyphClass: 2
Flags: W
LayerCount: 2
Fore
SplineSet
595.136430062 -23.35 m 0
 920.643716074 -23.35 1108.47185804 230.611294357 1108.47185804 629.471858037 c 0
 1108.47185804 1047.01926566 841.889624182 1376.72567852 351.887432148 1488.76083509 c 1
 273.030146136 1363.15555325 l 1
 486.286537313 1315.9063023 911.625866382 1144.00246344 918.510292271 754.003277667 c 1
 920.195720247 747.261565766 921.388434234 734.447995827 921.388434234 730.234425889 c 1
 862.112296444 817.804279753 755.848726505 899.035427975 580.866576197 899.035427975 c 0
 302.216576197 899.035427975 104.314572025 715.691711901 104.314572025 452.041711901 c 0
 104.314572025 187.391711901 293.979144049 -23.35 595.136430062 -23.35 c 0
593.878141963 131.768851778 m 0
 423.332421716 131.768851778 298.996993741 258.7 298.996993741 443.878141963 c 0
 298.996993741 622.385427975 417.996993741 742.881148222 598.136430062 742.881148222 c 0
 749.216576197 742.881148222 901.682150308 632.780146136 901.682150308 470.272860123 c 0
 901.682150308 281.608288099 800.919582456 131.768851778 593.878141963 131.768851778 c 0
496.651732764 1060.08114822 m 1
 973.784697297 1402.59271399 l 1
 903.977411285 1500.69070982 l 1
 426.844446752 1158.82914405 l 1
 496.651732764 1060.08114822 l 1
EndSplineSet
EndChar

StartChar: exclam
Encoding: 1 33 196
Width: 581
VWidth: 0
GlyphClass: 2
Flags: W
LayerCount: 2
Fore
SplineSet
174.584425889 0 m 1
 406.566847606 0 l 1
 406.566847606 221.454279753 l 1
 174.584425889 221.454279753 l 1
 174.584425889 0 l 1
237.90528184 376.370855951 m 1
 345.545991655 376.370855951 l 1
 401.094989569 1456 l 1
 182.356283926 1456 l 1
 237.90528184 376.370855951 l 1
EndSplineSet
EndChar

StartChar: f
Encoding: 70 102 198
Width: 725
VWidth: 0
GlyphClass: 2
Flags: W
AnchorPoint: "top" 543 1464 basechar 0
AnchorPoint: "bottom" 366 0 basechar 0
LayerCount: 2
Fore
SplineSet
251.878141963 0 m 1
 251.878141963 904.881148222 l 1
 68.4927139877 904.881148222 l 1
 68.4927139877 1026 l 1
 251.878141963 1026 l 1
 251.878141963 1112.03843423 l 2
 251.878141963 1372.80100209 294.65 1489.82185804 644.961565766 1489.82185804 c 2
 692.646993741 1489.82185804 l 1
 690.468851778 1346.51029227 l 1
 453.895991655 1346.51029227 435.338705643 1300.74471816 435.338705643 1130.33215031 c 2
 435.338705643 1026 l 1
 680.332421716 1026 l 1
 680.332421716 904.881148222 l 1
 435.338705643 904.881148222 l 1
 435.338705643 0 l 1
 251.878141963 0 l 1
EndSplineSet
EndChar

StartChar: uniFB01
Encoding: 430 64257 199
Width: 1237
VWidth: 0
GlyphClass: 2
Flags: W
LayerCount: 2
Fore
SplineSet
252.5 0 m 1
 252.5 901.15 l 1
 68.7 901.15 l 1
 68.7 1026 l 1
 252.5 1026 l 1
 252.5 1108.1 l 2
 252.5 1371.35 294.65 1489.2 648.9 1489.2 c 2
 697 1489.2 l 1
 694.2 1341.95 l 1
 459.7 1341.95 441.35 1298.05 441.35 1125.15 c 2
 441.35 1026 l 1
 915.5 1026 l 1
 915.5 901.15 l 1
 441.35 901.15 l 1
 441.35 0 l 1
 252.5 0 l 1
EndSplineSet
Refer: 223 105 N 1 0 0 1 715.15 0 2
EndChar

StartChar: five
Encoding: 21 53 200
Width: 1230
VWidth: 0
GlyphClass: 2
Flags: W
LayerCount: 2
Fore
SplineSet
609.213569938 -23 m 0
 448.370855951 -23 284.842713988 24.0417119014 165.664572025 146.412567852 c 1
 257.447995827 288.374133618 l 1
 355.60528184 179.195991655 486.584425889 140.646993741 606.370855951 140.646993741 c 0
 808.353006259 140.646993741 910.272860123 277.077139877 910.272860123 464.269853864 c 0
 910.272860123 629.207286012 818.457286012 763.592713988 642.454279753 763.592713988 c 0
 555.495991655 763.592713988 454.801273495 727.334425889 414.48670147 665.197995827 c 1
 235.447995827 673.275135704 l 1
 235.447995827 1456 l 1
 1019.8251357 1456 l 1
 1019.8251357 1291.70300626 l 1
 412.709561593 1291.70300626 l 1
 399.409561593 834.417849692 l 1
 461.074133618 900.295991655 564.388705643 931.575135704 659.059561593 931.575135704 c 0
 932.569853864 931.575135704 1107.29070982 731.147995827 1107.29070982 461.127139877 c 0
 1107.29070982 175.008288099 917.252004173 -23 609.213569938 -23 c 0
EndSplineSet
EndChar

StartChar: uniFB02
Encoding: 431 64258 201
Width: 1252
VWidth: 0
GlyphClass: 2
Flags: W
LayerCount: 2
Fore
SplineSet
454.35 901.15 m 1
 454.35 0 l 1
 265.5 0 l 1
 265.5 901.15 l 1
 68.7 901.15 l 1
 68.7 1026 l 1
 265.5 1026 l 1
 265.5 1092.65 l 2
 265.5 1357.5 350.95 1464.95 723.05 1464.95 c 2
 1087.6 1464.95 l 1
 1087.6 0 l 1
 899.1 0 l 1
 899.1 1319.35 l 1
 738.45 1319.35 l 2
 497.3 1319.35 454.35 1273.05 454.35 1124.75 c 2
 454.35 1026 l 1
 698.1 1026 l 1
 698.1 901.15 l 1
 454.35 901.15 l 1
EndSplineSet
EndChar

StartChar: florin
Encoding: 318 402 202
Width: 1069
VWidth: 0
GlyphClass: 2
Flags: W
LayerCount: 2
Fore
SplineSet
200.842713988 -298.198997914 m 0
 178.884425889 -298.198997914 138.828141963 -293.898997914 95.65 -281.706283926 c 1
 109.842713988 -133.237432148 l 1
 109.842713988 -133.237432148 155.335427975 -144.74471816 190.706283926 -144.74471816 c 0
 277.258288099 -144.74471816 335.136430062 -94.8427139877 359.157286012 32.9969937411 c 1
 498.72386221 813.510020863 l 1
 345.080146136 813.510020863 l 1
 369.136430062 937.95801669 l 1
 521.252004173 937.95801669 l 1
 556.136430062 1126.9582881 l 1
 583.136430062 1296.05300626 648.958288099 1469.10100209 891.020855951 1469.10100209 c 0
 978.646993741 1469.10100209 1049.7834238 1435.58743215 1049.7834238 1435.58743215 c 1
 1033.4334238 1290.96129436 l 1
 1033.4334238 1290.96129436 974.90528184 1310.31129436 923.90528184 1310.31129436 c 0
 823.359561593 1310.31129436 775.825135704 1264.07386221 756.139707729 1158.33215031 c 1
 711.27613779 937.95801669 l 1
 907.035427975 937.95801669 l 1
 881.65 813.510020863 l 1
 688.062567852 813.510020863 l 1
 559.154279753 86.2165761972 l 2
 515.118851778 -161.195991655 438.115574111 -298.198997914 200.842713988 -298.198997914 c 0
EndSplineSet
EndChar

StartChar: four
Encoding: 20 52 203
Width: 1230
VWidth: 0
GlyphClass: 2
Flags: W
LayerCount: 2
Fore
SplineSet
743.557286012 0 m 1
 743.557286012 385.664572025 l 1
 104.842713988 385.664572025 l 1
 104.842713988 541.060292271 l 1
 687.87613779 1456 l 1
 935.340709815 1456 l 1
 935.340709815 535.735427975 l 1
 1152.64699374 535.735427975 l 1
 1152.64699374 385.664572025 l 1
 936.32613779 385.664572025 l 1
 936.32613779 0 l 1
 743.557286012 0 l 1
307.289707729 535.735427975 m 1
 744.4 535.735427975 l 1
 744.4 1247.28643006 l 1
 640.896722333 1080.67459289 l 1
 307.289707729 535.735427975 l 1
EndSplineSet
EndChar

StartChar: uni2074
Encoding: 414 8308 204
Width: 897
VWidth: 0
GlyphClass: 2
Flags: W
LayerCount: 2
Fore
SplineSet
406.4 625.85 m 1
 406.4 815.6 l 1
 31.2 815.6 l 1
 31.2 913.25 l 1
 397.9 1427.4 l 1
 545.9 1427.4 l 1
 545.9 930.65 l 1
 657.35 930.65 l 1
 663.85 815.6 l 1
 544.6 815.6 l 1
 544.6 625.85 l 1
 406.4 625.85 l 1
183.15 930.65 m 1
 404.4 930.65 l 1
 404.4 1242.95 l 1
 183.15 930.65 l 1
EndSplineSet
EndChar

StartChar: fraction
Encoding: 413 8260 205
Width: 1073
VWidth: 0
GlyphClass: 2
Flags: W
LayerCount: 2
Fore
SplineSet
0 0 m 1
 900.293716074 1456 l 1
 1072.8251357 1456 l 1
 174.388705643 0 l 1
 0 0 l 1
EndSplineSet
EndChar

StartChar: g
Encoding: 71 103 206
Width: 1251
VWidth: 0
GlyphClass: 2
Flags: W
AnchorPoint: "top" 580 1027 basechar 0
AnchorPoint: "bottom" 588 -512 basechar 0
LayerCount: 2
Fore
SplineSet
590.747995827 142.522129445 m 0
 806.570855951 142.522129445 910.237432148 309.767849692 910.237432148 541.236430062 c 0
 910.237432148 757.666576197 797.685427975 902.195720247 606.884425889 902.195720247 c 0
 410.940709815 902.195720247 291.53141963 744.316576197 291.53141963 514.313569938 c 0
 291.53141963 289.883423803 401.92613779 142.522129445 590.747995827 142.522129445 c 0
938.09471816 234.127139877 m 1
 901.251059226 140.575831113 809.510130876 -3.90526233454 586.970503382 -3.90526233454 c 0
 298.414962279 -3.90526233454 100.178141963 199.492823404 100.178141963 511.156283926 c 0
 100.178141963 830.865574111 277.115574111 1052 581.528141963 1052 c 0
 807.916576197 1052 897.451002086 909.412567852 944.37386221 807.062567852 c 1
 906.709290185 792.056283926 l 1
 911.881148222 1026 l 1
 1099.41256785 1026 l 1
 1099.41256785 1026 1090.0417119 861.006283926 1090.0417119 751.296722333 c 2
 1090.0417119 136.712567852 l 2
 1090.0417119 -194.542442579 923.014843433 -419.815574111 576.35 -419.815574111 c 0
 433.878141963 -419.815574111 312.142713988 -390.815574111 188.65 -328.972860123 c 1
 217.863569938 -168.325866382 l 1
 336.898997914 -237.682150308 435.097995827 -264.703006259 569.979144049 -264.703006259 c 0
 786.216576197 -264.703006259 907.216576197 -152.252004173 907.216576197 90.2020041726 c 2
 907.216576197 255.95528184 l 1
 938.09471816 234.127139877 l 1
EndSplineSet
EndChar

StartChar: germandbls
Encoding: 158 223 210
Width: 1249
VWidth: 0
GlyphClass: 2
Flags: W
LayerCount: 2
Fore
SplineSet
806.743162783 -22.65 m 0
 623.778590759 -22.65 478.728590759 37 478.728590759 37 c 1
 508.292160697 180.454279753 l 1
 508.292160697 180.454279753 662.921304746 117.783423803 796.036878857 125.296993741 c 0
 895.609738981 130.825135704 985.98360119 201.90528184 985.98360119 330.335427975 c 0
 985.98360119 521.39471816 809.550448796 642.682150308 557.86502082 753.881148222 c 1
 557.86502082 888.528141963 l 1
 758.763747326 971.09471816 823.847171129 1046.97914405 823.847171129 1175.93743215 c 0
 823.847171129 1287.21029227 745.861743153 1357.76858037 604.19416487 1357.76858037 c 0
 430.82030266 1357.76858037 348.942160697 1216.44471816 348.942160697 1028.93743215 c 2
 348.942160697 0 l 1
 167.609738981 0 l 1
 166.767024993 1025.92286012 l 2
 166.417024993 1328.50728601 330.458736894 1503.27286012 604.49416487 1503.27286012 c 0
 859.84416487 1503.27286012 1013.92130474 1374.22286012 1013.92130474 1180.10100209 c 0
 1013.92130474 1023.3917119 932.627588672 930.943716074 769.218298488 852.65 c 0
 760.648444623 848.293716074 721.319300574 830.471858037 711.906732722 827.801002086 c 1
 721.669300574 825.622860123 759.176586586 810.958288099 768.939154438 807.587432148 c 0
 972.725584501 724.293716074 1178.90044879 595.572860123 1178.90044879 344.020855951 c 0
 1178.90044879 120.35 1003.92130474 -22.65 806.743162783 -22.65 c 0
EndSplineSet
EndChar

StartChar: grave
Encoding: 64 96 211
Width: 597
VWidth: 0
GlyphClass: 4
Flags: W
AnchorPoint: "top" 448 1022 mark 0
LayerCount: 2
Fore
SplineSet
383.388434234 1170.18542798 m 1
 46.8248642959 1469.15782883 l 1
 285.548997914 1469.15782883 l 1
 535.919853864 1170.18542798 l 1
 383.388434234 1170.18542798 l 1
EndSplineSet
EndChar

StartChar: greater
Encoding: 30 62 212
Width: 1254
VWidth: 0
GlyphClass: 2
Flags: W
LayerCount: 2
Fore
SplineSet
214 68.9374321479 m 1
 214 241.412567852 l 1
 913.391711901 559.356283926 l 1
 219 903.821858037 l 1
 219 1073.45427975 l 1
 1150.80755742 601.234425889 l 1
 1150.80755742 503.807286012 l 1
 214 68.9374321479 l 1
EndSplineSet
EndChar

StartChar: greaterequal
Encoding: 427 8805 213
Width: 1350
VWidth: 0
GlyphClass: 2
Flags: W
LayerCount: 2
Fore
SplineSet
189.062296444 0 m 1
 189.062296444 136.961565766 l 1
 1163.19271399 136.961565766 l 1
 1163.19271399 0 l 1
 189.062296444 0 l 1
203.726868468 1216.4929854 m 1
 1135.3917119 750.314843433 l 1
 1135.3917119 655.273131532 l 1
 199.076868468 212.961565766 l 1
 199.076868468 384.451273495 l 1
 904.11858037 705.608559507 l 1
 203.726868468 1047.70327767 l 1
 203.726868468 1216.4929854 l 1
EndSplineSet
EndChar

StartChar: guillemotleft
Encoding: 106 171 214
Width: 1117
VWidth: 0
GlyphClass: 2
Flags: W
LayerCount: 2
Fore
SplineSet
397.548997914 170.136430062 m 1
 126.513569938 543.157286012 l 1
 402.898997914 918.192713988 l 1
 565.489707729 918.192713988 l 1
 317.510563679 542.807286012 l 1
 557.489707729 170.136430062 l 1
 397.548997914 170.136430062 l 1
827.062567852 170.136430062 m 1
 556.234425889 543.157286012 l 1
 832.412567852 918.192713988 l 1
 995.003277667 918.192713988 l 1
 747.23141963 542.807286012 l 1
 987.003277667 170.136430062 l 1
 827.062567852 170.136430062 l 1
EndSplineSet
EndChar

StartChar: guillemotright
Encoding: 122 187 215
Width: 1117
VWidth: 0
GlyphClass: 2
Flags: W
LayerCount: 2
Fore
SplineSet
724.825135704 916.035427975 m 1
 995.860563679 542.807286012 l 1
 719.682421716 167.979144049 l 1
 556.884425889 167.979144049 l 1
 804.863569938 543.157286012 l 1
 564.884425889 916.035427975 l 1
 724.825135704 916.035427975 l 1
295.311565766 916.035427975 m 1
 566.139707729 542.807286012 l 1
 289.961565766 167.979144049 l 1
 127.370855951 167.979144049 l 1
 375.35 543.157286012 l 1
 135.370855951 916.035427975 l 1
 295.311565766 916.035427975 l 1
EndSplineSet
EndChar

StartChar: guilsinglleft
Encoding: 411 8249 216
Width: 685
VWidth: 0
GlyphClass: 2
Flags: W
LayerCount: 2
Fore
SplineSet
409.035427975 167.979144049 m 1
 138 541 l 1
 414.178141963 916.035427975 l 1
 576.97613779 916.035427975 l 1
 328.996993741 540.65 l 1
 568.97613779 167.979144049 l 1
 409.035427975 167.979144049 l 1
EndSplineSet
EndChar

StartChar: guilsinglright
Encoding: 412 8250 217
Width: 685
VWidth: 0
GlyphClass: 2
Flags: W
LayerCount: 2
Fore
SplineSet
276.25528184 915.685427975 m 1
 547.290709815 542.664572025 l 1
 270.90528184 167.629144049 l 1
 108.314572025 167.629144049 l 1
 356.293716074 542.807286012 l 1
 116.314572025 915.685427975 l 1
 276.25528184 915.685427975 l 1
EndSplineSet
EndChar

StartChar: h
Encoding: 72 104 218
Width: 1240
VWidth: 0
GlyphClass: 2
Flags: W
AnchorPoint: "top" 737 1260 basechar 0
AnchorPoint: "bottom" 645 0 basechar 0
LayerCount: 2
Fore
SplineSet
169.572860123 0 m 1
 169.572860123 1483.92286012 l 1
 353.383423803 1483.92286012 l 1
 353.383423803 866.427139877 l 1
 414.85528184 978.563569938 556.083423803 1052 703.964572025 1052 c 0
 964.024133618 1052 1083.33542798 859.391440493 1083.33542798 620.545720247 c 2
 1083.33542798 0 l 1
 899.524864296 0 l 1
 899.524864296 614.902004173 l 2
 899.524864296 814.552004173 832.510292271 902.195720247 674.643716074 902.195720247 c 0
 509.406283926 902.195720247 353.383423803 769.780146136 353.383423803 622.664572025 c 2
 353.383423803 0 l 1
 169.572860123 0 l 1
EndSplineSet
EndChar

StartChar: hbar
Encoding: 230 295 219
Width: 1208
VWidth: 0
GlyphClass: 2
Flags: W
LayerCount: 2
Fore
SplineSet
-7.5698538644 1181.31457202 m 1
 -8.42713987672 1320.02085595 l 1
 575.356283926 1320.02085595 l 1
 576.213569938 1181.31457202 l 1
 -7.5698538644 1181.31457202 l 1
EndSplineSet
Refer: 218 104 N 1 0 0 1 0 0 2
EndChar

StartChar: hungarumlaut
Encoding: 370 733 221
Width: 969
VWidth: 0
GlyphClass: 4
Flags: W
AnchorPoint: "top" 316 1000 mark 0
LayerCount: 2
Fore
SplineSet
141.905741109 1156.85 m 1
 350.882880986 1464.87139877 l 1
 554.522588715 1464.87139877 l 1
 274.374592888 1156.85 l 1
 141.905741109 1156.85 l 1
408.579144049 1156.85 m 1
 625.823131532 1464.87139877 l 1
 833.819123186 1464.87139877 l 1
 544.383423803 1156.85 l 1
 408.579144049 1156.85 l 1
EndSplineSet
EndChar

StartChar: hyphen
Encoding: 13 45 222
Width: 678
VWidth: 0
GlyphClass: 2
Flags: W
LayerCount: 2
Fore
SplineSet
61.6145720247 486.080146136 m 1
 61.6145720247 631.056283926 l 1
 616.703277667 631.056283926 l 1
 616.703277667 486.080146136 l 1
 61.6145720247 486.080146136 l 1
EndSplineSet
EndChar

StartChar: i
Encoding: 73 105 223
Width: 509
VWidth: 0
GlyphClass: 2
Flags: W
AnchorPoint: "bottom" 248 0 basechar 0
LayerCount: 2
Fore
SplineSet
163.432421716 0 m 1
 163.432421716 1026 l 1
 344.792985396 1026 l 1
 344.792985396 0 l 1
 163.432421716 0 l 1
162.810563679 1286.03843423 m 1
 162.810563679 1456 l 1
 344.792985396 1456 l 1
 344.792985396 1286.03843423 l 1
 162.810563679 1286.03843423 l 1
EndSplineSet
EndChar

StartChar: infinity
Encoding: 422 8734 231
Width: 1728
VWidth: 0
GlyphClass: 2
Flags: W
LayerCount: 2
Fore
SplineSet
461.685427975 234.807286012 m 0
 244.492713988 234.807286012 96 409.842713988 96 615.370855951 c 0
 96 802.406283926 266.492713988 951.234425889 456.685427975 951.234425889 c 0
 620.178141963 951.234425889 748.878141963 852.427139877 865.370855951 698.391711901 c 1
 976.720855951 848.427139877 1097.86356994 951.234425889 1266.70628393 951.234425889 c 0
 1486.54899791 951.234425889 1627.0417119 803.406283926 1627.0417119 597.878141963 c 0
 1627.0417119 382.7 1458.54899791 234.807286012 1264.70628393 234.807286012 c 0
 1116.21356994 234.807286012 995.863569938 317.471858037 863.370855951 487.507286012 c 1
 748.878141963 338.821858037 622.178141963 234.807286012 461.685427975 234.807286012 c 0
468.056283926 362.234425889 m 0
 595.863569938 362.234425889 702.370855951 465.756283926 793.178141963 591.878141963 c 1
 702.370855951 724 595.863569938 826.821858037 458.056283926 826.821858037 c 0
 316.248997914 826.821858037 235.412567852 720.35 235.412567852 594.528141963 c 0
 235.412567852 476.406283926 326.248997914 362.234425889 468.056283926 362.234425889 c 0
1267.21356994 362.234425889 m 0
 1416.02085595 362.234425889 1481.50728601 475.198997914 1481.50728601 620.178141963 c 0
 1481.50728601 731.65 1393.02085595 826.821858037 1262.21356994 826.821858037 c 0
 1131.54899791 826.821858037 1018.24899791 714.35 935.741711901 594.528141963 c 1
 1053.89899791 442.898997914 1145.40628393 362.234425889 1267.21356994 362.234425889 c 0
EndSplineSet
EndChar

StartChar: integral
Encoding: 423 8747 232
Width: 748
VWidth: 0
GlyphClass: 2
Flags: W
LayerCount: 2
Fore
SplineSet
163.62613779 -304.898997914 m 0
 73.4271398767 -304.898997914 19.056283926 -282.356283926 19.056283926 -282.356283926 c 1
 19.056283926 -139.587432148 l 1
 19.056283926 -139.587432148 81.4479958274 -154.937432148 135.62613779 -154.937432148 c 0
 259.335427975 -154.937432148 281.807286012 -82.943716074 281.807286012 49.9791440493 c 2
 281.807286012 1190.09471816 l 2
 281.807286012 1407.28743215 354.898997914 1567.92286012 582.391711901 1567.92286012 c 0
 670.077139877 1567.92286012 721.839707729 1545.93743215 721.839707729 1545.93743215 c 1
 721.839707729 1401.13315239 l 1
 721.839707729 1401.13315239 669.269853864 1417.61129436 612.919853864 1417.61129436 c 0
 488.017849692 1417.61129436 466.317849692 1346.1748643 466.317849692 1213.25200417 c 2
 466.317849692 72.7864300616 l 2
 466.317849692 -144.406283926 391.818851778 -304.898997914 163.62613779 -304.898997914 c 0
EndSplineSet
EndChar

StartChar: j
Encoding: 74 106 235
Width: 524
VWidth: 0
GlyphClass: 2
Flags: W
AnchorPoint: "top" 700 1500 basechar 0
AnchorPoint: "bottom" 676 0 basechar 0
LayerCount: 2
Fore
SplineSet
51.8949895685 -400.430146136 m 0
 274.132693125 -400.430146136 362.227411285 -292.706012518 362.227411285 -7.40929018491 c 2
 362.227411285 1026 l 1
 178.766847606 1026 l 1
 178.766847606 1.41256785207 l 2
 178.766847606 -199.388434234 149.482421716 -261.154008345 26.2304175439 -261.154008345 c 0
 -37.6122964438 -261.154008345 -99.1050104315 -241.646722333 -99.1050104315 -241.646722333 c 1
 -115.440438407 -378.080146136 l 1
 -79.2092901849 -387.566576197 -11.2238622096 -400.430146136 51.8949895685 -400.430146136 c 0
178.766847606 1286.03843423 m 1
 362.227411285 1286.03843423 l 1
 362.227411285 1456 l 1
 178.766847606 1456 l 1
 178.766847606 1286.03843423 l 1
EndSplineSet
EndChar

StartChar: k
Encoding: 75 107 237
Width: 1077
VWidth: 0
GlyphClass: 2
Flags: W
AnchorPoint: "top" 767 1026 basechar 0
AnchorPoint: "bottom" 616 0 basechar 0
LayerCount: 2
Fore
SplineSet
169.572860123 0 m 1
 169.572860123 1483.92286012 l 1
 353.383423803 1483.92286012 l 1
 353.383423803 591.706283926 l 1
 797.902004173 1026 l 1
 1050.64699374 1026 l 1
 529.552275581 539.329144049 l 1
 1087.31156577 0 l 1
 842.252004173 0 l 1
 353.383423803 487.37386221 l 1
 353.383423803 0 l 1
 169.572860123 0 l 1
EndSplineSet
EndChar

StartChar: kgreenlandic
Encoding: 247 312 239
Width: 1082
VWidth: 0
GlyphClass: 2
Flags: W
LayerCount: 2
Fore
SplineSet
170.272860123 0 m 1
 170.272860123 1026 l 1
 354.590709815 1026 l 1
 354.590709815 573.996993741 l 1
 794.388434234 1026 l 1
 1045.94070982 1026 l 1
 520.296993741 511.157286012 l 1
 745.297265149 305.685156567 850.020584542 211.863841347 1083.09799583 0 c 1
 838.038434234 0 l 1
 354.590709815 450.982150308 l 1
 354.590709815 0 l 1
 170.272860123 0 l 1
EndSplineSet
EndChar

StartChar: l
Encoding: 76 108 240
Width: 519
VWidth: 0
GlyphClass: 2
Flags: W
AnchorPoint: "top" 266 1456 basechar 0
AnchorPoint: "bottom" 264 0 basechar 0
LayerCount: 2
Fore
SplineSet
169.443716074 0 m 1
 169.443716074 1483.92286012 l 1
 352.554279753 1483.92286012 l 1
 352.554279753 0 l 1
 169.443716074 0 l 1
EndSplineSet
EndChar

StartChar: less
Encoding: 28 60 244
Width: 1254
VWidth: 0
GlyphClass: 2
Flags: W
LayerCount: 2
Fore
SplineSet
1035.43369521 68.0947181603 m 1
 103.768851778 534.272860123 l 1
 103.768851778 629.314572025 l 1
 1040.29098122 1071.62613779 l 1
 1040.29098122 900.136430062 l 1
 335.04198331 578.979144049 l 1
 1035.43369521 236.884425889 l 1
 1035.43369521 68.0947181603 l 1
EndSplineSet
EndChar

StartChar: lessequal
Encoding: 426 8804 245
Width: 1350
VWidth: 0
GlyphClass: 2
Flags: W
LayerCount: 2
Fore
SplineSet
1121.76256785 213.311565766 m 1
 190.097724419 679.489707729 l 1
 190.097724419 774.53141963 l 1
 1126.41256785 1216.8429854 l 1
 1126.41256785 1045.35327767 l 1
 421.370855951 724.195991655 l 1
 1121.76256785 382.101273495 l 1
 1121.76256785 213.311565766 l 1
168.996722333 0 m 1
 168.996722333 136.961565766 l 1
 1142.91985386 136.961565766 l 1
 1142.91985386 0 l 1
 168.996722333 0 l 1
EndSplineSet
EndChar

StartChar: logicalnot
Encoding: 107 172 246
Width: 1463
VWidth: 0
GlyphClass: 2
Flags: W
LayerCount: 2
Fore
SplineSet
1079.59043841 233.786430062 m 1
 1079.59043841 647.059290185 l 1
 197.252004173 647.059290185 l 1
 197.252004173 801.863569938 l 1
 1249.2582881 801.863569938 l 1
 1249.2582881 233.786430062 l 1
 1079.59043841 233.786430062 l 1
EndSplineSet
EndChar

StartChar: lozenge
Encoding: 428 9674 248
Width: 1248
VWidth: 0
GlyphClass: 2
Flags: W
LayerCount: 2
Fore
SplineSet
609.801002086 128.623131532 m 1
 954.625866382 707.979144049 l 1
 618.958288099 1283.82158663 l 1
 274.133423803 709.486430062 l 1
 609.801002086 128.623131532 l 1
549.709290185 -43.6645720247 m 1
 102.237432148 707.979144049 l 1
 557.216576197 1462.27286012 l 1
 677.492713988 1462.27286012 l 1
 1127.96457202 708.979144049 l 1
 669.192713988 -43.6645720247 l 1
 549.709290185 -43.6645720247 l 1
EndSplineSet
EndChar

StartChar: lslash
Encoding: 257 322 249
Width: 503
VWidth: 0
GlyphClass: 2
Flags: W
LayerCount: 2
Fore
SplineSet
156.059290185 0 m 1
 156.059290185 697.919853864 l 1
 1.68542797534 597.919853864 l 1
 1.68542797534 754.237703556 l 1
 155.709290185 854.237703556 l 1
 155.709290185 1483.92286012 l 1
 340.727139877 1483.92286012 l 1
 340.727139877 973.605553248 l 1
 495.430146136 1073.41283926 l 1
 495.430146136 916.902275581 l 1
 341.077139877 815.394989569 l 1
 341.077139877 0 l 1
 156.059290185 0 l 1
EndSplineSet
EndChar

StartChar: m
Encoding: 77 109 250
Width: 1877
VWidth: 0
GlyphClass: 2
Flags: W
AnchorPoint: "top" 952 1024 basechar 0
AnchorPoint: "bottom" 946 0 basechar 0
LayerCount: 2
Fore
SplineSet
178.308288099 0 m 1
 178.308288099 745.545720247 l 2
 178.308288099 852.898997914 172.937432148 951.192713988 169.287432148 1026 c 1
 360.783423803 1026 l 1
 360.783423803 858.60528184 l 1
 415.747995827 984.507286012 560.7 1052 691.364572025 1052 c 0
 833.308288099 1052 949.501002086 967.727139877 999.014572025 827.747995827 c 1
 1073.36457202 963.828141963 1207.09471816 1052 1372.58114822 1052 c 0
 1601.50100209 1052 1722.0082881 890.614572025 1722.0082881 629.65 c 2
 1722.0082881 0 l 1
 1538.19772442 0 l 1
 1538.19772442 609.335427975 l 2
 1538.19772442 801.255010431 1481.21029227 902.195720247 1350.42386221 902.195720247 c 0
 1198.93114822 902.195720247 1045.72085595 766.017578284 1045.72085595 585.664572025 c 2
 1045.72085595 0 l 1
 861.910292271 0 l 1
 861.910292271 632.964572025 l 2
 861.910292271 785.946722333 804.658288099 902.195720247 657.521858037 902.195720247 c 0
 491.756283926 902.195720247 362.118851778 759.308288099 362.118851778 607.056283926 c 2
 362.118851778 0 l 1
 178.308288099 0 l 1
EndSplineSet
EndChar

StartChar: macron
Encoding: 110 175 251
Width: 720
VWidth: 0
GlyphClass: 4
Flags: W
AnchorPoint: "top" 373 1000 mark 0
LayerCount: 2
Fore
SplineSet
68.1572860123 1332.88789142 m 1
 68.1572860123 1477.14317326 l 1
 651.940709815 1477.14317326 l 1
 651.940709815 1332.88789142 l 1
 68.1572860123 1332.88789142 l 1
EndSplineSet
EndChar

StartChar: middot
Encoding: -1 183 252
Width: 509
VWidth: 0
GlyphClass: 2
Flags: W
LayerCount: 2
Fore
SplineSet
146 513 m 1
 146 723 l 1
 363 723 l 1
 363 513 l 1
 146 513 l 1
EndSplineSet
EndChar

StartChar: minus
Encoding: 419 8722 253
Width: 1285
VWidth: 0
GlyphClass: 2
Flags: W
LayerCount: 2
Fore
SplineSet
173.569853864 445.709018777 m 1
 173.569853864 598.020584542 l 1
 1111.6681211 598.020584542 l 1
 1111.6681211 445.709018777 l 1
 173.569853864 445.709018777 l 1
EndSplineSet
EndChar

StartChar: multiply
Encoding: 150 215 254
Width: 1230
VWidth: 0
GlyphClass: 2
Flags: W
LayerCount: 2
Fore
SplineSet
325.133423803 145.080146136 m 1
 208.157286012 262.056283926 l 1
 497.765574111 552.314572025 l 1
 208.157286012 842.780146136 l 1
 325.133423803 959.548997914 l 1
 615.391711901 669.290709815 l 1
 905.35 959.548997914 l 1
 1022.62613779 842.272860123 l 1
 732.017849692 552.314572025 l 1
 1022.62613779 262.356283926 l 1
 905.35 145.080146136 l 1
 615.391711901 434.688434234 l 1
 325.133423803 145.080146136 l 1
EndSplineSet
EndChar

StartChar: n
Encoding: 78 110 255
Width: 1240
VWidth: 0
GlyphClass: 2
Flags: W
AnchorPoint: "top" 700 1500 basechar 0
AnchorPoint: "bottom" 676 0 basechar 0
LayerCount: 2
Fore
SplineSet
177.958288099 0 m 1
 177.958288099 744.86329853 l 2
 177.958288099 896.801002086 168.587432148 1026 168.587432148 1026 c 1
 360.433423803 1026 l 1
 360.433423803 869.898997914 l 1
 430.468851778 982.391711901 568.468851778 1052 708.035427975 1052 c 0
 989.895720247 1052 1089.33542798 867.388705643 1089.33542798 558.427139877 c 2
 1089.33542798 0 l 1
 905.524864296 0 l 1
 905.524864296 547.996993741 l 2
 905.524864296 768.706283926 868.46858037 902.195720247 672.979144049 902.195720247 c 0
 499.545991655 902.195720247 362.418851778 748.041711901 361.768851778 643.080146136 c 2
 361.768851778 0 l 1
 177.958288099 0 l 1
EndSplineSet
EndChar

StartChar: nine
Encoding: 25 57 259
Width: 1232
VWidth: 0
GlyphClass: 2
Flags: W
LayerCount: 2
Fore
SplineSet
554.281784969 -24.35 m 0
 437.809926932 -24.35 327.768215031 1.38542797534 198.74735908 67.878141963 c 1
 257.145354908 217.510563679 l 1
 361.910929018 159.703277667 450.089070982 140.996993741 539.596356994 140.996993741 c 0
 753.812933191 140.996993741 894.869217117 310.178141963 894.869217117 650.258288099 c 2
 894.869217117 706.195720247 l 1
 830.533789142 588.059290185 717.341075154 537.608288099 568.617212945 537.608288099 c 0
 292.089070982 537.608288099 129.04735908 729.101002086 129.04735908 1000.97914405 c 0
 129.04735908 1274.01457202 304.596356994 1483 603.124498957 1483 c 0
 923.967212945 1483 1085.39435282 1233.52814196 1085.39435282 773.157286012 c 0
 1085.39435282 227.23141963 864.736064723 -24.35 554.281784969 -24.35 c 0
321.715208772 1006.62914405 m 0
 321.715208772 831.213569938 398.922494784 696.762567852 594.474498957 696.762567852 c 0
 765.082787055 696.762567852 884.554645092 807.706283926 884.554645092 996.898997914 c 0
 884.554645092 1162.13643006 792.904645092 1317.84572025 599.688068895 1317.84572025 c 0
 424.079780797 1317.84572025 321.715208772 1186.58743215 321.715208772 1006.62914405 c 0
EndSplineSet
EndChar

StartChar: notequal
Encoding: 425 8800 260
Width: 1360
VWidth: 0
GlyphClass: 2
Flags: W
LayerCount: 2
Fore
SplineSet
473.097995827 43.471858037 m 1
 333.958288099 64.4927139877 l 1
 457.74471816 319.101002086 l 1
 163.664572025 319.101002086 l 1
 163.664572025 455.25528184 l 1
 526.964572025 455.25528184 l 1
 662.231148222 714.866576197 l 1
 163.664572025 714.866576197 l 1
 163.664572025 852.020855951 l 1
 727.101002086 852.020855951 l 1
 860.922860123 1122.65 l 1
 1003.90528184 1101.97914405 l 1
 880.133423803 852.020855951 l 1
 1196.76256785 852.020855951 l 1
 1196.76256785 714.866576197 l 1
 814.548997914 714.866576197 l 1
 677.996993741 455.25528184 l 1
 1196.76256785 455.25528184 l 1
 1196.76256785 319.101002086 l 1
 610.919853864 319.101002086 l 1
 473.097995827 43.471858037 l 1
EndSplineSet
EndChar

StartChar: numbersign
Encoding: 3 35 262
Width: 1301
VWidth: 0
GlyphClass: 2
Flags: W
LayerCount: 2
Fore
SplineSet
241.510292271 43.3530062589 m 1
 326.845720247 476.430146136 l 1
 78.5665761972 476.430146136 l 1
 89.2165761972 610.157286012 l 1
 352.531148222 610.157286012 l 1
 364.174864296 677.447724419 390.730146136 814.845991655 403.02386221 882.136430062 c 1
 140.688434234 882.136430062 l 1
 152.845720247 1014.35628393 l 1
 427.552004173 1014.35628393 l 1
 508.09471816 1429.90528184 l 1
 663.65 1429.90528184 l 1
 584.821858037 1014.35628393 l 1
 828.474864296 1014.35628393 l 1
 906.860292271 1429.90528184 l 1
 1062.41557411 1429.90528184 l 1
 982.937432148 1014.35628393 l 1
 1219.02386221 1014.35628393 l 1
 1206.70929018 882.136430062 l 1
 957.552004173 882.136430062 l 1
 906.409290185 610.157286012 l 1
 1158.40929018 610.157286012 l 1
 1146.09471816 476.430146136 l 1
 882.231148222 476.430146136 l 1
 797.545720247 43.3530062589 l 1
 642.433152394 43.3530062589 l 1
 724.961294357 476.430146136 l 1
 481.101002086 476.430146136 l 1
 397.272860123 43.3530062589 l 1
 241.510292271 43.3530062589 l 1
505.486430062 610.157286012 m 1
 751.296722333 610.157286012 l 1
 802.646722333 882.136430062 l 1
 558.786430062 882.136430062 l 1
 505.486430062 610.157286012 l 1
EndSplineSet
EndChar

StartChar: o
Encoding: 79 111 263
Width: 1256
VWidth: 0
GlyphClass: 2
Flags: W
AnchorPoint: "top" 619 1026 basechar 0
AnchorPoint: "bottom" 826 0 basechar 0
AnchorPoint: "ogonek" 726 0 basechar 0
LayerCount: 2
Fore
SplineSet
633.020855951 127.454279753 m 0
 850.821858037 127.454279753 962.72386221 281.839707729 962.72386221 512.192713988 c 0
 962.72386221 745.388434234 847.629144049 902.195720247 630.213569938 902.195720247 c 0
 411.290709815 902.195720247 294.195991655 745.388434234 294.195991655 510.685427975 c 0
 294.195991655 280.982421716 410.25528184 127.454279753 633.020855951 127.454279753 c 0
631.056283926 -22.35 m 0
 296.801002086 -22.35 100.178141963 193.747995827 100.178141963 511.492713988 c 0
 100.178141963 834.080146136 299.136430062 1052 633.863569938 1052 c 0
 964.804279753 1052 1156.7417119 834.780146136 1156.7417119 512.507286012 c 0
 1156.7417119 195.447995827 961.97613779 -22.35 631.056283926 -22.35 c 0
EndSplineSet
EndChar

StartChar: oe
Encoding: 274 339 268
Width: 1977
VWidth: 0
GlyphClass: 2
Flags: W
LayerCount: 2
Fore
SplineSet
1113.74799583 616.584425889 m 1
 1694.11858037 616.584425889 l 1
 1694.11858037 623.913569938 1694.11858037 631.320855951 1693.46858037 638.65 c 0
 1676.46858037 784.751002086 1574.78943632 902.195720247 1414.92286012 902.195720247 c 0
 1245.0417119 902.195720247 1128.96156577 765.293716074 1113.74799583 616.584425889 c 1
625.198997914 127.454279753 m 0
 837.908288099 127.454279753 932.566576197 307.077139877 932.566576197 511 c 0
 932.566576197 732.080146136 838.101002086 902.195720247 617.548997914 902.195720247 c 0
 402.646993741 902.195720247 288.845991655 729.287432148 288.195991655 507.35 c 0
 287.545991655 300.427139877 391.489707729 127.454279753 625.198997914 127.454279753 c 0
619.391711901 -22 m 0
 280.584425889 -22 94.178141963 209.471858037 94.178141963 509.492713988 c 0
 94.178141963 808.528141963 276.356283926 1052 622.670855951 1052 c 0
 816.985427975 1052 947.35 960.863569938 1025.31457202 821.154279753 c 1
 1100 965.234425889 1225.2582881 1052.84271399 1409.94371607 1052.84271399 c 0
 1703.94371607 1052.84271399 1863.31457202 834.65 1863.31457202 524.922860123 c 2
 1863.31457202 477.881148222 l 1
 1113.25528184 477.881148222 l 1
 1113.60528184 475.845720247 1113.39799583 442.272860123 1113.74799583 440.587432148 c 0
 1123.96156577 257.528141963 1256.84899791 127.454279753 1453.33542798 127.454279753 c 0
 1668.05929018 127.454279753 1773.49271399 231.489707729 1773.49271399 231.489707729 c 1
 1830.21356994 94.2135699384 l 1
 1830.21356994 94.2135699384 1711.22286012 -22 1434.96457202 -22 c 0
 1259.16356994 -22 1089.52814196 68.4510020863 1022 216.160292271 c 1
 956 64.6291440493 798.664572025 -22 619.391711901 -22 c 0
EndSplineSet
EndChar

StartChar: ogonek
Encoding: 368 731 269
Width: 508
VWidth: 0
GlyphClass: 4
Flags: W
AnchorPoint: "ogonek" 308 0 mark 0
LayerCount: 2
Fore
SplineSet
41.9582880986 -220.415845519 m 0
 41.9582880986 -107.667849692 162.919853864 -35.9582880986 263.842713988 14.178141963 c 1
 398.089436321 5.54899791371 l 1
 282.250492987 -62.7530891733 206.277268748 -124.40964153 206.277268748 -181.18299646 c 0
 206.277268748 -228.541984831 255.569535342 -253.129172306 292.268109254 -253.129172306 c 0
 356.510168562 -253.129172306 406.15394846 -237.122062578 453.747995827 -218.870125273 c 1
 453.747995827 -341.121127359 l 1
 401.809460084 -359.769287923 319.365628208 -373.551893831 255.20812184 -373.551893831 c 0
 132.54834019 -373.551893831 41.9582880986 -319.149767172 41.9582880986 -220.415845519 c 0
EndSplineSet
EndChar

StartChar: one
Encoding: 17 49 273
Width: 1230
VWidth: 0
GlyphClass: 2
Flags: W
LayerCount: 2
Fore
SplineSet
282.370855951 0 m 1
 282.370855951 158.284425889 l 1
 556.807286012 158.284425889 l 1
 556.807286012 1249.19572025 l 1
 472.863569938 1202.55200417 364.513569938 1160.5665762 259.842713988 1121.40929018 c 1
 259.842713988 1294.89899791 l 1
 363.035427975 1330.54899791 510.451002086 1402.33542798 599.451002086 1456 c 1
 748.332421716 1456 l 1
 748.332421716 157.234425889 l 1
 1012.48970773 157.234425889 l 1
 1012.48970773 0 l 1
 282.370855951 0 l 1
EndSplineSet
EndChar

StartChar: onehalf
Encoding: 124 189 274
Width: 2120
VWidth: 0
GlyphClass: 2
Flags: W
LayerCount: 2
Fore
SplineSet
233.252004173 629.629144049 m 1
 233.252004173 758.741711901 l 1
 376.60528184 758.741711901 l 1
 376.60528184 1291.57286012 l 1
 345.545991655 1274.96457202 245.646722333 1241.74471816 207.258288099 1227.29371607 c 1
 207.258288099 1366.21356994 l 1
 257.733152394 1382.82185804 365.430417544 1424.94070982 398.646993741 1445.21356994 c 1
 515.937703556 1456 l 1
 515.937703556 755.884425889 l 1
 652.549269322 755.884425889 l 1
 652.549269322 629.629144049 l 1
 233.252004173 629.629144049 l 1
1256.45181631 0 m 1
 1256.45181631 124.97613779 l 1
 1527.19680588 363.094989569 1669.74553239 505.062567852 1669.74553239 602.786430062 c 0
 1669.74553239 669.293716074 1618.78096036 709.09471816 1538.17267226 709.09471816 c 0
 1458.6862422 709.09471816 1386.95910232 663.943716074 1338.70382048 592.706283926 c 1
 1259.2528184 690.23141963 l 1
 1318.87895619 785.447995827 1425.39252613 839.513569938 1546.00081422 839.513569938 c 0
 1698.17895619 839.513569938 1816.7279541 754.391711901 1816.7279541 604.786430062 c 0
 1816.7279541 435.457286012 1657.76338208 295.670855951 1463.66866392 134.296993741 c 1
 1813.05709815 134.296993741 l 1
 1813.05709815 0 l 1
 1256.45181631 0 l 1
443.546263063 0 m 1
 1343.83997914 1456 l 1
 1507.94425889 1456 l 1
 609.507828829 0 l 1
 443.546263063 0 l 1
EndSplineSet
EndChar

StartChar: onequarter
Encoding: 123 188 275
Width: 2016
VWidth: 0
GlyphClass: 2
Flags: W
LayerCount: 2
Fore
SplineSet
1510.62340294 26.2374321479 m 1
 1510.62340294 215.572860123 l 1
 1134.8015449 215.572860123 l 1
 1134.8015449 311.979144049 l 1
 1501.29425889 826.958288099 l 1
 1646.39225472 826.958288099 l 1
 1646.39225472 328.964572025 l 1
 1757.42768269 328.964572025 l 1
 1764.54954073 215.572860123 l 1
 1644.88496871 215.572860123 l 1
 1644.88496871 26.2374321479 l 1
 1510.62340294 26.2374321479 l 1
1284.05682674 328.964572025 m 1
 1508.62340294 328.964572025 l 1
 1508.62340294 645.824864296 l 1
 1284.05682674 328.964572025 l 1
487.04198331 0 m 1
 1387.33569938 1456 l 1
 1551.64726515 1456 l 1
 653.003549075 0 l 1
 487.04198331 0 l 1
239.293716074 629.629144049 m 1
 239.293716074 758.741711901 l 1
 382.646993741 758.741711901 l 1
 382.646993741 1291.57286012 l 1
 351.587703556 1274.96457202 251.038434234 1241.74471816 212.65 1227.29371607 c 1
 213.507286012 1366.21356994 l 1
 263.982150308 1382.82185804 371.472129445 1424.94070982 404.688705643 1445.21356994 c 1
 521.979415458 1456 l 1
 521.979415458 755.884425889 l 1
 658.590981223 755.884425889 l 1
 658.590981223 629.629144049 l 1
 239.293716074 629.629144049 l 1
EndSplineSet
EndChar

StartChar: uni00B9
Encoding: 120 185 276
Width: 1095
VWidth: 0
GlyphClass: 2
Flags: W
LayerCount: 2
Fore
SplineSet
349.95 609.95 m 1
 349.95 741.55 l 1
 498.9 741.55 l 1
 498.9 983.35 498.25 1206.95 498.25 1270.65 c 1
 470.3 1255.7 359 1220.2 324.55 1207.2 c 1
 325.2 1348.4 l 1
 370.7 1363.35 492.7 1409.2 522.6 1427.4 c 1
 643 1437.15 l 1
 643 738.9 l 1
 783.55 738.9 l 1
 783.55 609.95 l 1
 349.95 609.95 l 1
EndSplineSet
EndChar

StartChar: ordfeminine
Encoding: 105 170 277
Width: 790
VWidth: 0
GlyphClass: 2
Flags: W
LayerCount: 2
Fore
SplineSet
332.706283926 757.902004173 m 0
 438.940709815 757.902004173 517.919853864 810.629144049 550.213569938 874.608288099 c 1
 557.884425889 779.415574111 l 1
 699.825135704 779.415574111 l 1
 694.667849692 847.454008345 692.825135704 875.275866382 692.332421716 913.664572025 c 0
 691.982421716 930.661565766 693.139707729 1185.21630479 693.139707729 1224.05929018 c 0
 693.139707729 1409.50728601 564.783423803 1478 413.412567852 1478 c 0
 247.513569938 1478 128.020855951 1410.50728601 128.020855951 1410.50728601 c 1
 169.219853864 1304.40929018 l 1
 169.219853864 1304.40929018 285.25528184 1358.05929018 403.548997914 1358.05929018 c 0
 504.486430062 1358.05929018 546.335427975 1315.13014614 546.335427975 1205.32914405 c 2
 546.335427975 1174.6082881 l 1
 372.35 1174.6082881 l 2
 183.370855951 1174.6082881 91.056283926 1095.6082881 91.056283926 966.937432148 c 0
 91.056283926 836.72386221 195.062567852 757.902004173 332.706283926 757.902004173 c 0
347.356283926 864.136430062 m 0
 277.27613779 864.136430062 228.468851778 901.451002086 228.468851778 970.74471816 c 0
 228.468851778 1087.03843423 326.020855951 1086.2165762 545.842713988 1086.2165762 c 1
 545.842713988 1085.8665762 545.842713988 1064.09471816 545.842713988 1063.74471816 c 0
 545.842713988 947.038434234 465.887432148 864.136430062 347.356283926 864.136430062 c 0
EndSplineSet
EndChar

StartChar: ordmasculine
Encoding: 121 186 278
Width: 885
VWidth: 0
GlyphClass: 2
Flags: W
LayerCount: 2
Fore
SplineSet
445.513569938 881.329144049 m 0
 574.807286012 881.329144049 656.121858037 969.801002086 656.121858037 1107.09471816 c 0
 656.121858037 1251.73843423 574.807286012 1338.51029227 443.706283926 1338.51029227 c 0
 315.762567852 1338.51029227 232.60528184 1250.03843423 232.60528184 1110.74471816 c 0
 232.60528184 967.451002086 309.062567852 881.329144049 445.513569938 881.329144049 c 0
445.706283926 753.866576197 m 0
 202.842713988 753.866576197 76.8072860123 910.359290185 76.8072860123 1113.39471816 c 0
 76.8072860123 1311.73014614 210.335427975 1467.92286012 444.213569938 1467.92286012 c 0
 680.741711901 1467.92286012 808.762567852 1310.09471816 808.762567852 1110.25200417 c 0
 808.762567852 915.059290185 679.727139877 753.866576197 445.706283926 753.866576197 c 0
EndSplineSet
EndChar

StartChar: oslash
Encoding: 183 248 279
Width: 1253
VWidth: 0
GlyphClass: 2
Flags: W
LayerCount: 2
Fore
SplineSet
354.807286012 -209.65 m 1
 257.964572025 -170.471858037 l 1
 892.314572025 1233.55200417 l 1
 990.664572025 1192.8665762 l 1
 354.807286012 -209.65 l 1
EndSplineSet
Refer: 263 111 N 1 0 0 1 0 0 2
EndChar

StartChar: p
Encoding: 80 112 281
Width: 1259
VWidth: 0
GlyphClass: 2
Flags: W
AnchorPoint: "top" 790 1500 basechar 0
AnchorPoint: "bottom" 826 0 basechar 0
LayerCount: 2
Fore
SplineSet
178.101002086 -419.415574111 m 1
 178.101002086 739.667578284 l 2
 178.101002086 808.101002086 173.065574111 924.821858037 167.572860123 1026 c 1
 361.27613779 1026 l 1
 361.27613779 847.762567852 l 1
 403.863569938 961.465574111 550.101002086 1052 697.234425889 1052 c 0
 980.898997914 1052 1159.52814196 837.902004173 1159.52814196 526.507286012 c 0
 1159.52814196 203.118851778 977.584425889 -22.35 696.370855951 -22.35 c 0
 535.979144049 -22.35 398.198997914 67.7417119014 361.27613779 163.115574111 c 1
 361.27613779 -419.415574111 l 1
 178.101002086 -419.415574111 l 1
665.943716074 127.454279753 m 0
 857.451002086 127.454279753 965.510292271 284.646993741 965.510292271 519.314572025 c 0
 965.510292271 748.195720247 857.065574111 902.195720247 670.258288099 902.195720247 c 0
 473.964572025 902.195720247 357.90528184 741.07386221 357.90528184 499.898997914 c 0
 357.90528184 277.525135704 470.979144049 127.454279753 665.943716074 127.454279753 c 0
EndSplineSet
EndChar

StartChar: paragraph
Encoding: 117 182 282
Width: 1210
VWidth: 0
GlyphClass: 2
Flags: W
LayerCount: 2
Fore
SplineSet
465.881148222 -178.65 m 1
 465.881148222 813.415574111 l 1
 276.661294357 818.629144049 121.572860123 929.857286012 121.572860123 1133.66457202 c 0
 121.572860123 1387.19271399 313.451002086 1455.65 590.801002086 1455.65 c 2
 1040.56985386 1455.65 l 1
 1040.56985386 1315.70300626 l 1
 954.762567852 1315.70300626 l 1
 954.762567852 -178.65 l 1
 809.415574111 -178.65 l 1
 809.415574111 1315.70300626 l 1
 611.020855951 1315.70300626 l 1
 611.020855951 -178.65 l 1
 465.881148222 -178.65 l 1
EndSplineSet
EndChar

StartChar: parenleft
Encoding: 8 40 283
Width: 634
VWidth: 0
GlyphClass: 2
Flags: W
LayerCount: 2
Fore
SplineSet
411.964572025 -173.157286012 m 1
 255.629144049 65.528141963 137.958288099 361.198997914 137.958288099 662.842713988 c 0
 137.958288099 977.979144049 240.979144049 1252.35 407.629144049 1516 c 1
 585.646993741 1516 l 1
 417.311565766 1248.80728601 321.118851778 960.608288099 321.118851778 664.507286012 c 0
 321.118851778 389.706283926 426.646993741 79.878141963 586.296993741 -173.157286012 c 1
 411.964572025 -173.157286012 l 1
EndSplineSet
EndChar

StartChar: parenright
Encoding: 9 41 284
Width: 634
VWidth: 0
GlyphClass: 2
Flags: W
LayerCount: 2
Fore
SplineSet
223.175135704 1496 m 1
 379.510563679 1257.31457202 497.388705643 961.643716074 497.388705643 660 c 0
 497.388705643 344.863569938 394.160563679 70.4927139877 227.510563679 -193.157286012 c 1
 49.4927139877 -193.157286012 l 1
 217.828141963 74.0354279753 314.020855951 362.234425889 314.020855951 658.335427975 c 0
 314.020855951 933.136430062 208.492713988 1242.96457202 48.8427139877 1496 c 1
 223.175135704 1496 l 1
EndSplineSet
EndChar

StartChar: partialdiff
Encoding: 65539 8706 285
Width: 1164
VWidth: 0
GlyphClass: 2
Flags: W
LayerCount: 2
Fore
SplineSet
487.979144049 -24 m 0
 879.014572025 -24 1070.47185804 415.629144049 1070.47185804 845.258288099 c 0
 1070.47185804 1313.41557411 883.279144049 1524.08014614 580.608288099 1524.08014614 c 0
 464.115574111 1524.08014614 349.09471816 1485.58743215 267.059290185 1429.70929018 c 1
 278.902004173 1288.76858037 l 1
 348.160292271 1334.02686847 452.195720247 1374.76858037 559.643716074 1374.76858037 c 0
 754.682150308 1374.76858037 876.640438407 1204.60200417 879.311294357 925.468851778 c 0
 879.661294357 901.043987482 878.804008345 852.785427975 878.804008345 832.646993741 c 1
 845.174864296 903.62613779 748.017578284 1002 581.984744049 1002 c 0
 300.943716074 1002 73.5728601233 748.35 73.5728601233 422.035427975 c 0
 73.5728601233 170.7 214.608288099 -24 487.979144049 -24 c 0
490.136430062 127.154279753 m 0
 350.198997914 127.154279753 262.590709815 242.60528184 262.590709815 418.685427975 c 0
 262.590709815 652.622860123 410.863569938 854.038434234 602.451002086 854.038434234 c 0
 729.003006259 854.038434234 823.646722333 757.74471816 862.154008345 652.471858037 c 1
 822.940438407 337.667578284 703.133152394 127.154279753 490.136430062 127.154279753 c 0
EndSplineSet
EndChar

StartChar: percent
Encoding: 5 37 286
Width: 1757
VWidth: 0
GlyphClass: 2
Flags: W
LayerCount: 2
Fore
SplineSet
433.762567852 861.020855951 m 0
 299.525135704 861.020855951 249.982421716 960.272860123 249.982421716 1109.29371607 c 0
 249.982421716 1250.47185804 296.839707729 1360.72386221 434.412567852 1360.72386221 c 0
 569.178141963 1360.72386221 616.035427975 1258.45100209 616.035427975 1112.10100209 c 0
 616.035427975 967.39471816 568 861.020855951 433.762567852 861.020855951 c 0
430.747995827 737.765574111 m 0
 651.083423803 737.765574111 774.982421716 897.02386221 774.982421716 1111.45100209 c 0
 774.982421716 1326 660.062567852 1483.32914405 435.062567852 1483.32914405 c 0
 213.727139877 1483.32914405 90.178141963 1319.52814196 90.178141963 1108.64371607 c 0
 90.178141963 892.916576197 207.397995827 737.765574111 430.747995827 737.765574111 c 0
347.940709815 0 m 1
 505.709561593 0 l 1
 1424.78041754 1456 l 1
 1265.80427975 1456 l 1
 347.940709815 0 l 1
1325.64398748 97.9407098151 m 0
 1191.40655533 97.9407098151 1142.51384135 197.192713988 1142.51384135 344.706283926 c 0
 1142.51384135 485.884425889 1187.86384135 597.643716074 1326.94398748 597.643716074 c 0
 1462.35956159 597.643716074 1507.70956159 496.228141963 1507.70956159 349.878141963 c 0
 1507.70956159 205.171858037 1460.73870564 97.9407098151 1325.64398748 97.9407098151 c 0
1323.48670147 -25.3145720247 m 0
 1543.82212945 -25.3145720247 1667.72112736 139.492713988 1667.72112736 349.020855951 c 0
 1667.72112736 557.370855951 1552.80127349 720.898997914 1327.80127349 720.898997914 c 0
 1106.46584552 720.898997914 982.709561593 551.548997914 982.709561593 345.356283926 c 0
 982.709561593 135.828141963 1101.64398748 -25.3145720247 1323.48670147 -25.3145720247 c 0
EndSplineSet
EndChar

StartChar: period
Encoding: 14 46 287
Width: 543
VWidth: 0
GlyphClass: 2
Flags: W
LayerCount: 2
Fore
SplineSet
151.566576197 0 m 1
 151.566576197 224.468851778 l 1
 385.706283926 224.468851778 l 1
 385.706283926 0 l 1
 151.566576197 0 l 1
EndSplineSet
EndChar

StartChar: periodcentered
Encoding: 118 183 288
Width: 479
VWidth: 0
GlyphClass: 2
Flags: W
LayerCount: 2
Fore
SplineSet
122.919853864 522.412567852 m 1
 122.919853864 746.88141963 l 1
 357.059561593 746.88141963 l 1
 357.059561593 522.412567852 l 1
 122.919853864 522.412567852 l 1
EndSplineSet
EndChar

StartChar: perthousand
Encoding: 410 8240 289
Width: 2565
VWidth: 0
GlyphClass: 2
Flags: W
LayerCount: 2
Fore
SplineSet
2131.44826724 -25.3145720247 m 0
 1909.60555325 -25.3145720247 1790.87841337 135.828141963 1790.87841337 345.356283926 c 0
 1790.87841337 551.548997914 1914.42741129 720.898997914 2135.76283926 720.898997914 c 0
 2360.76283926 720.898997914 2475.68269312 557.370855951 2475.68269312 349.020855951 c 0
 2475.68269312 139.492713988 2351.78369521 -25.3145720247 2131.44826724 -25.3145720247 c 0
2133.60555325 97.9407098151 m 0
 2268.70027141 97.9407098151 2315.87841337 205.171858037 2315.87841337 349.878141963 c 0
 2315.87841337 496.228141963 2270.32112736 597.643716074 2134.90555325 597.643716074 c 0
 1995.82540711 597.643716074 1950.68269312 485.884425889 1950.68269312 344.706283926 c 0
 1950.68269312 197.192713988 1999.3681211 97.9407098151 2133.60555325 97.9407098151 c 0
EndSplineSet
Refer: 286 37 N 1 0 0 1 0 0 2
EndChar

StartChar: pi
Encoding: 65540 960 290
Width: 1288
VWidth: 0
GlyphClass: 2
Flags: W
LayerCount: 2
Fore
SplineSet
1061.13643006 -10.6708559507 m 0
 907.943716074 -10.6708559507 841.682150308 69.471858037 841.682150308 273.314572025 c 2
 841.682150308 882.552004173 l 1
 523.293716074 882.552004173 l 1
 523.293716074 882.552004173 475.377139877 129.311565766 375.25528184 0 c 1
 189.080146136 0 l 1
 295.552004173 153.919853864 334.810292271 556.178141963 353.296722333 882.552004173 c 1
 235.454008345 879.552004173 140.510292271 858.531148222 79.1155741109 822.409290185 c 1
 62.1155741109 963 l 1
 119.388434234 1009.45100209 219.703006259 1026 385.097724419 1026 c 2
 1214 1026 l 1
 1214 882.552004173 l 1
 1013.66457202 882.552004173 l 1
 1013.66457202 276.961565766 l 2
 1013.66457202 217.611565766 1014.66457202 136.133423803 1110.15728601 136.133423803 c 0
 1130.50728601 136.133423803 1157.3 140.133423803 1188.65 149.133423803 c 1
 1187.65 129.133423803 1185.65 100.706283926 1185.65 81.356283926 c 0
 1185.65 50.356283926 1188.65 34.6791440493 1198 3.32914404931 c 1
 1147.50728601 -5.67085595069 1099.48643006 -10.6708559507 1061.13643006 -10.6708559507 c 0
EndSplineSet
EndChar

StartChar: plus
Encoding: 11 43 291
Width: 1201
VWidth: 0
GlyphClass: 2
Flags: W
LayerCount: 2
Fore
SplineSet
514.492713988 103.572860123 m 1
 514.492713988 519.545720247 l 1
 130.178141963 519.545720247 l 1
 130.178141963 674.492713988 l 1
 515.192713988 674.492713988 l 1
 515.192713988 1075.66457202 l 1
 685.160563679 1075.66457202 l 1
 685.160563679 674.492713988 l 1
 1071.33242172 674.492713988 l 1
 1071.33242172 519.545720247 l 1
 685.667849692 519.545720247 l 1
 685.667849692 103.572860123 l 1
 514.492713988 103.572860123 l 1
EndSplineSet
EndChar

StartChar: plusminus
Encoding: 112 177 292
Width: 1231
VWidth: 0
GlyphClass: 2
Flags: W
LayerCount: 2
Fore
SplineSet
532.451002086 254.447995827 m 1
 532.451002086 594.157286012 l 1
 193.807286012 594.157286012 l 1
 193.807286012 747.118851778 l 1
 529.608288099 747.118851778 l 1
 529.608288099 1089.87814196 l 1
 699.468851778 1089.87814196 l 1
 699.468851778 747.118851778 l 1
 1033.76885178 747.118851778 l 1
 1033.76885178 594.157286012 l 1
 704.804279753 594.157286012 l 1
 704.804279753 254.447995827 l 1
 532.451002086 254.447995827 l 1
183.178141963 0 m 1
 183.178141963 140.290709815 l 1
 1057.23442589 140.290709815 l 1
 1057.23442589 0 l 1
 183.178141963 0 l 1
EndSplineSet
EndChar

StartChar: product
Encoding: 418 8719 293
Width: 1568
VWidth: 0
GlyphClass: 2
Flags: W
LayerCount: 2
Fore
SplineSet
241.587432148 -100 m 1
 241.587432148 1297.72386221 l 1
 97.3884342342 1297.72386221 l 1
 95.8811482219 1456 l 1
 1453.32914405 1456 l 1
 1453.82185804 1297.72386221 l 1
 1324.82185804 1297.72386221 l 1
 1324.82185804 -100 l 1
 1122.44772442 -100 l 1
 1122.44772442 1297.72386221 l 1
 439.768851778 1297.72386221 l 1
 439.768851778 -100 l 1
 241.587432148 -100 l 1
EndSplineSet
EndChar

StartChar: q
Encoding: 81 113 294
Width: 1254
VWidth: 0
GlyphClass: 2
Flags: W
LayerCount: 2
Fore
SplineSet
898.380146136 -419.415574111 m 1
 898.380146136 151.296722333 l 1
 844.967578284 69.0030062589 735.145720247 -22.35 573.148997914 -22.35 c 0
 283.715574111 -22.35 99.478141963 197.296993741 99.478141963 511.198997914 c 0
 99.478141963 832.080146136 283.564572025 1052 580.463569938 1052 c 0
 719.152004173 1052 834.831148222 985.077139877 898.872860123 883.25528184 c 1
 898.872860123 1026 l 1
 1089.39799583 1026 l 1
 1087.36256785 1000.43315239 1081.55528184 817.213569938 1081.55528184 793.332150308 c 2
 1081.55528184 -419.415574111 l 1
 898.380146136 -419.415574111 l 1
594.362567852 127.454279753 m 0
 793.848997914 127.454279753 901.751002086 286.804279753 901.751002086 531.608288099 c 0
 901.751002086 751.003006259 790.656283926 902.195720247 602.341711901 902.195720247 c 0
 406.697995827 902.195720247 293.495991655 744.531148222 293.495991655 509.178141963 c 0
 293.495991655 280.982421716 402.20528184 127.454279753 594.362567852 127.454279753 c 0
EndSplineSet
EndChar

StartChar: question
Encoding: 31 63 295
Width: 1059
VWidth: 0
GlyphClass: 2
Flags: W
LayerCount: 2
Fore
SplineSet
344.252004173 378.25528184 m 1
 344.252004173 520.569853864 l 2
 344.252004173 767.92613779 720.174864296 893.219853864 720.174864296 1122.96457202 c 0
 720.174864296 1264.20200417 608.059290185 1319.84572025 469.136430062 1319.84572025 c 0
 347.471858037 1319.84572025 228.622860123 1272.03843423 180.272860123 1246.88114822 c 1
 180.272860123 1410.84271399 l 1
 256.097724419 1448.43014614 380.269582456 1479.68542798 489.979144049 1479.68542798 c 0
 731.608288099 1479.68542798 910.178141963 1364.84271399 910.178141963 1130.82185804 c 0
 910.178141963 831.103108543 492.198997914 717.097995827 492.198997914 477.507286012 c 2
 492.198997914 378.25528184 l 1
 344.252004173 378.25528184 l 1
309.39471816 -7.97914404931 m 1
 309.39471816 216.489707729 l 1
 543.741711901 216.489707729 l 1
 543.741711901 -7.97914404931 l 1
 309.39471816 -7.97914404931 l 1
EndSplineSet
EndChar

StartChar: quotedbl
Encoding: 2 34 297
Width: 793
VWidth: 0
GlyphClass: 2
Flags: W
LayerCount: 2
Fore
SplineSet
187.454008345 962.314572025 m 1
 144.433152394 1456 l 1
 339.059290185 1456 l 1
 308.017578284 962.314572025 l 1
 187.454008345 962.314572025 l 1
496.059290185 962.314572025 m 1
 453.038434234 1456 l 1
 647.664572025 1456 l 1
 616.415574111 962.314572025 l 1
 496.059290185 962.314572025 l 1
EndSplineSet
EndChar

StartChar: quotedblbase
Encoding: 405 8222 298
Width: 1024
VWidth: 0
GlyphClass: 2
Flags: W
LayerCount: 2
Fore
SplineSet
156.296722333 -233.786430062 m 1
 262.839436321 215.468851778 l 1
 466.335427975 215.468851778 l 1
 311.157286012 -233.786430062 l 1
 156.296722333 -233.786430062 l 1
525.059290185 -233.786430062 m 1
 631.09471816 215.468851778 l 1
 835.447995827 215.468851778 l 1
 677.727139877 -233.786430062 l 1
 525.059290185 -233.786430062 l 1
EndSplineSet
EndChar

StartChar: quotedblleft
Encoding: 403 8220 299
Width: 1024
VWidth: 0
GlyphClass: 2
Flags: W
LayerCount: 2
Fore
SplineSet
165.902004173 882.451002086 m 1
 330.121858037 1456 l 1
 481.311565766 1456 l 1
 374.133423803 882.451002086 l 1
 165.902004173 882.451002086 l 1
543.311565766 882.451002086 m 1
 703.003277667 1456 l 1
 854.335699384 1456 l 1
 748.157557421 882.451002086 l 1
 543.311565766 882.451002086 l 1
EndSplineSet
EndChar

StartChar: quotedblright
Encoding: 404 8221 300
Width: 1024
VWidth: 0
GlyphClass: 2
Flags: W
LayerCount: 2
Fore
SplineSet
200.415574111 882.451002086 m 1
 305.958288099 1456 l 1
 510.154279753 1456 l 1
 348.97613779 882.451002086 l 1
 200.415574111 882.451002086 l 1
547.768851778 882.451002086 m 1
 654.804279753 1456 l 1
 858.157557421 1456 l 1
 700.293987482 882.451002086 l 1
 547.768851778 882.451002086 l 1
EndSplineSet
EndChar

StartChar: quoteleft
Encoding: 400 8216 301
Width: 513
VWidth: 0
GlyphClass: 2
Flags: W
LayerCount: 2
Fore
SplineSet
392.195991655 882.451002086 m 1
 266.783423803 882.451002086 l 1
 112.919853864 1456 l 1
 340.552275581 1456 l 1
 392.195991655 882.451002086 l 1
EndSplineSet
EndChar

StartChar: quoteright
Encoding: 401 8217 302
Width: 528
VWidth: 0
GlyphClass: 2
Flags: W
LayerCount: 2
Fore
SplineSet
121.329144049 882.801002086 m 1
 188.741711901 1456 l 1
 416.038705643 1456 l 1
 257.447995827 882.801002086 l 1
 121.329144049 882.801002086 l 1
EndSplineSet
EndChar

StartChar: quotesinglbase
Encoding: 402 8218 303
Width: 586
VWidth: 0
GlyphClass: 2
Flags: W
LayerCount: 2
Fore
SplineSet
133.077139877 -312.213569938 m 1
 241.25528184 215.468851778 l 1
 433.822129445 215.468851778 l 1
 283.780417544 -312.213569938 l 1
 133.077139877 -312.213569938 l 1
EndSplineSet
EndChar

StartChar: quotesingle
Encoding: 7 39 304
Width: 510
VWidth: 0
GlyphClass: 2
Flags: W
LayerCount: 2
Fore
SplineSet
200.587432148 951.216576197 m 1
 160.937432148 1456 l 1
 359.919853864 1456 l 1
 332.041711901 951.216576197 l 1
 200.587432148 951.216576197 l 1
EndSplineSet
EndChar

StartChar: r
Encoding: 82 114 305
Width: 822
VWidth: 0
GlyphClass: 2
Flags: W
AnchorPoint: "top" 487 1026 basechar 0
AnchorPoint: "bottom" 338 0 basechar 0
LayerCount: 2
Fore
SplineSet
180.308288099 0 m 1
 180.308288099 775.979144049 l 2
 180.308288099 807.587703556 169.637432148 1026 169.637432148 1026 c 1
 363.483423803 1026 l 1
 363.483423803 865.727139877 l 1
 423.189707729 982.828141963 519.447995827 1050.49271399 634.269853864 1050.49271399 c 0
 671.091711901 1050.49271399 706.741711901 1046.14271399 740.934425889 1037.65 c 1
 740.934425889 874.003006259 l 1
 714.892713988 881.531148222 672.892713988 891.545720247 625.406283926 891.545720247 c 0
 471.640709815 891.545720247 364.118851778 772.436430062 364.118851778 571.020855951 c 2
 364.118851778 0 l 1
 180.308288099 0 l 1
EndSplineSet
EndChar

StartChar: radical
Encoding: 65541 8730 307
Width: 1314
VWidth: 0
GlyphClass: 2
Flags: W
LayerCount: 2
Fore
SplineSet
597.02386221 -150.471858037 m 1
 271.415574111 676.866576197 l 2
 270.572860123 676.516576197 102.293716074 648.37386221 102.293716074 648.37386221 c 1
 76.3947181603 776.528141963 l 1
 389.234425889 829.356283926 l 1
 660.080146136 93.6118371741 l 1
 1058.11858037 1586.09471816 l 1
 1211.50728601 1586.09471816 l 1
 748.670855951 -150.471858037 l 1
 597.02386221 -150.471858037 l 1
EndSplineSet
EndChar

StartChar: registered
Encoding: 109 174 310
Width: 1728
VWidth: 0
GlyphClass: 2
Flags: W
LayerCount: 2
Fore
SplineSet
863.821858037 1484.50728601 m 0
 447.664572025 1484.50728601 107.507286012 1144.35 107.507286012 728.192713988 c 0
 107.507286012 312.035427975 447.664572025 -28.471858037 863.821858037 -28.471858037 c 0
 1279.97914405 -28.471858037 1620.78643006 312.035427975 1620.78643006 728.192713988 c 0
 1620.78643006 1144.35 1279.97914405 1484.50728601 863.821858037 1484.50728601 c 0
864.121858037 72.7417119014 m 0
 509.142713988 72.7417119014 224.863569938 370.213569938 224.863569938 724.335427975 c 0
 224.863569938 1079.31457202 509.142713988 1376.78643006 864.121858037 1376.78643006 c 0
 1218.10100209 1376.78643006 1502.93743215 1079.31457202 1502.93743215 724.335427975 c 0
 1502.93743215 370.213569938 1218.10100209 72.7417119014 864.121858037 72.7417119014 c 0
705.919853864 776.513569938 m 1
 705.919853864 1055.70300626 l 1
 821.741711901 1055.70300626 l 2
 1015.43014614 1055.70300626 1063.88114822 1038.67386221 1063.88114822 914.101002086 c 0
 1063.88114822 800.178141963 983.059290185 776.513569938 823.492713988 776.513569938 c 2
 705.919853864 776.513569938 l 1
707.219853864 277.213569938 m 1
 707.219853864 660.587432148 l 1
 866.121858037 660.587432148 l 1
 1050.8665762 277.213569938 l 1
 1234.67085595 277.213569938 l 1
 1024.76256785 681.801002086 l 1
 1191.54271399 715.993716074 1233 812.157286012 1233 928.258288099 c 0
 1233 1094.59371607 1116.50728601 1186.94371607 827.878141963 1186.94371607 c 2
 543.415574111 1186.94371607 l 1
 543.415574111 277.213569938 l 1
 707.219853864 277.213569938 l 1
EndSplineSet
EndChar

StartChar: ring
Encoding: 367 730 311
Width: 627
VWidth: 0
GlyphClass: 4
Flags: W
AnchorPoint: "top" 316 1000 mark 0
LayerCount: 2
Fore
SplineSet
313.447995827 1391.9582881 m 0
 372.447995827 1391.9582881 420.447995827 1342.45100209 420.447995827 1282.45100209 c 0
 420.447995827 1221.80100209 372.447995827 1171.94371607 313.447995827 1171.94371607 c 0
 254.797995827 1171.94371607 206.590709815 1221.80100209 206.590709815 1282.45100209 c 0
 206.590709815 1342.45100209 254.797995827 1391.9582881 313.447995827 1391.9582881 c 0
314.747995827 1478 m 0
 203.377139877 1478 113.706283926 1395.82185804 113.706283926 1282.45100209 c 0
 113.706283926 1168.57286012 203.377139877 1086.25200417 314.747995827 1086.25200417 c 0
 425.118851778 1086.25200417 515.139707729 1168.57286012 515.139707729 1282.45100209 c 0
 515.139707729 1395.82185804 425.118851778 1478 314.747995827 1478 c 0
EndSplineSet
EndChar

StartChar: s
Encoding: 83 115 312
Width: 979
VWidth: 0
GlyphClass: 2
Flags: W
AnchorPoint: "top" 500 1026 basechar 0
AnchorPoint: "bottom" 501 0 basechar 0
LayerCount: 2
Fore
SplineSet
517.890709815 -22.35 m 0
 294.987703556 -22.35 158.13141963 68.2728601233 116.633423803 101.335427975 c 1
 168.561565766 237.646993741 l 1
 231.003277667 192.60528184 361.395991655 127.804279753 503.362567852 127.804279753 c 0
 609.956283926 127.804279753 709.622860123 159.154279753 709.622860123 278.213569938 c 0
 709.622860123 382.881148222 619.140709815 401.409290185 436.652275581 462.881148222 c 1
 261.916847606 523.059290185 120.018851778 576.866576197 120.018851778 766.786430062 c 0
 120.018851778 969.65 313.827139877 1051.50728601 494.327139877 1051.50728601 c 0
 681.210292271 1051.50728601 792.530146136 997.391711901 848.048997914 962.486430062 c 1
 794.978141963 830.353006259 l 1
 765.966576197 845.430146136 652.02386221 902.545720247 526.828141963 902.545720247 c 0
 389.303277667 902.545720247 307.130417544 856.059290185 307.480417544 772.293716074 c 0
 307.830417544 672.412567852 372.695991655 663.234425889 578.221858037 592.290709815 c 0
 760.064572025 528.762567852 889.956283926 474.590709815 889.956283926 285.335427975 c 0
 889.956283926 59.821858037 703.735427975 -22.35 517.890709815 -22.35 c 0
EndSplineSet
EndChar

StartChar: section
Encoding: 102 167 318
Width: 1068
VWidth: 0
GlyphClass: 2
Flags: W
LayerCount: 2
Fore
SplineSet
621.898997914 535.296993741 m 1
 675.451002086 571.433423803 723.688434234 630.878141963 723.688434234 701.801002086 c 0
 723.688434234 809.37386221 586.427139877 839.860292271 493.664572025 886.881148222 c 1
 438.447995827 855.622860123 358.003277667 800.993716074 358.003277667 727.035427975 c 0
 358.003277667 636.269853864 483.370855951 593.475135704 621.898997914 535.296993741 c 1
497.727139877 -75.643716074 m 0
 402.370855951 -75.643716074 292.385427975 -57.593716074 202.643716074 -21.2582880986 c 1
 201.136430062 129.724133618 l 1
 297.801002086 86.7595615932 408 65.2314196302 492.548997914 65.2314196302 c 0
 628.080146136 65.2314196302 708.552004173 135.940709815 708.552004173 221.747995827 c 1
 710.059290185 306.807286012 619.329144049 348.451002086 409.937432148 444.157286012 c 0
 270.151002086 507.821858037 185.786430062 588.178141963 185.786430062 712.65 c 0
 185.786430062 821.451002086 270.231148222 907.751002086 373.996722333 951.964572025 c 1
 283.053006259 1011.61457202 210.943716074 1088.29371607 210.943716074 1201.76557411 c 0
 210.943716074 1391.96457202 384.279144049 1488.97914405 594.629144049 1488.97914405 c 0
 682.807286012 1488.97914405 756.919853864 1473.12185804 840.27613779 1446.94371607 c 1
 840.27613779 1298.33215031 l 1
 778.118851778 1323.46858037 674.168851778 1350.8248643 601.741711901 1350.8248643 c 0
 489.646993741 1350.8248643 400.017849692 1298.55200417 400.017849692 1208.29371607 c 0
 400.017849692 1133 463.424133618 1077.65 624.682421716 1007.33542798 c 1
 779.62613779 938.142713988 902.611565766 864.192713988 902.611565766 721.35 c 0
 902.611565766 614.706283926 829.653277667 532.534425889 736.866847606 472.198997914 c 1
 828.510563679 424.041711901 896.97613779 343.027139877 896.97613779 229.90528184 c 0
 896.97613779 30.0208559507 714.747995827 -75.643716074 497.727139877 -75.643716074 c 0
EndSplineSet
EndChar

StartChar: semicolon
Encoding: 27 59 319
Width: 543
VWidth: 0
GlyphClass: 2
Flags: W
LayerCount: 2
Fore
SplineSet
92.8947181603 -245.217849692 m 1
 198.972860123 221.468851778 l 1
 409.233423803 221.468851778 l 1
 242.719853864 -245.217849692 l 1
 92.8947181603 -245.217849692 l 1
164.198997914 863.21329853 m 1
 164.198997914 1087.68215031 l 1
 389.62613779 1087.68215031 l 1
 389.62613779 863.21329853 l 1
 164.198997914 863.21329853 l 1
EndSplineSet
EndChar

StartChar: seven
Encoding: 23 55 320
Width: 1230
VWidth: 0
GlyphClass: 2
Flags: W
LayerCount: 2
Fore
SplineSet
348.74471816 0 m 1
 893.335156567 1296.03843423 l 1
 166.101002086 1296.03843423 l 1
 166.101002086 1456 l 1
 1109.5665762 1456 l 1
 1109.5665762 1313.19572025 l 1
 554.90528184 0 l 1
 348.74471816 0 l 1
EndSplineSet
EndChar

StartChar: six
Encoding: 22 54 321
Width: 1230
VWidth: 0
GlyphClass: 2
Flags: W
LayerCount: 2
Fore
SplineSet
654.90528184 -23 m 0
 303.727139877 -23 138.356283926 267.65 138.356283926 693.335427975 c 0
 138.356283926 1125.84271399 325.412567852 1483 706.60528184 1483 c 0
 851.797995827 1483 970.118851778 1434.82814196 1048.8251357 1366.78643006 c 1
 983.27613779 1227.98215031 l 1
 911.219853864 1284.84572025 816.062567852 1317.84572025 707.747995827 1317.84572025 c 0
 469.78670147 1317.84572025 359.430417544 1084.72713988 341.059561593 816.353277667 c 0
 339.566847606 797.017849692 339.216847606 776.332421716 338.866847606 755.996993741 c 1
 405.573131532 858.860563679 512.923131532 939.884425889 691.548997914 939.884425889 c 0
 946.296993741 939.884425889 1134.31156577 756.198997914 1134.31156577 466.670855951 c 0
 1134.31156577 187.985427975 952.083423803 -23 654.90528184 -23 c 0
657.884425889 140.646993741 m 0
 834.471858037 140.646993741 936.643716074 278.590709815 936.643716074 461.513569938 c 0
 936.643716074 642.929144049 845 784.587432148 654.433423803 784.587432148 c 0
 479.946993741 784.587432148 356.23141963 666.39471816 356.23141963 501.74471816 c 0
 356.23141963 276.898997914 465.115845519 140.646993741 657.884425889 140.646993741 c 0
EndSplineSet
EndChar

StartChar: slash
Encoding: 15 47 322
Width: 1091
VWidth: 0
GlyphClass: 2
Flags: W
LayerCount: 2
Fore
SplineSet
186.435887245 -90.2731315316 m 1
 731.880876814 1456 l 1
 911.314300616 1456 l 1
 361.72659706 -90.2731315316 l 1
 186.435887245 -90.2731315316 l 1
EndSplineSet
EndChar

StartChar: sterling
Encoding: 98 163 324
Width: 1203
VWidth: 0
GlyphClass: 2
Flags: W
LayerCount: 2
Fore
SplineSet
147.492713988 0 m 1
 147.492713988 149.447995827 l 1
 255.237432148 228.269853864 330.335427975 380.510292271 330.335427975 589.90528184 c 2
 330.335427975 681.922860123 l 1
 139.370855951 681.922860123 l 1
 139.370855951 819.234425889 l 1
 328.842713988 819.234425889 l 1
 328.842713988 940.688434234 l 2
 328.842713988 1242.43014614 421.329144049 1479.33542798 775.133423803 1479.33542798 c 0
 912.60528184 1479.33542798 1009.27613779 1447.05628393 1066.21684761 1405.68542798 c 1
 1015.84599165 1266.38843423 l 1
 972.712567852 1292.25200417 886.133423803 1326.67386221 781.996993741 1323.8665762 c 0
 590.545991655 1318.90200417 518.017849692 1199.31457202 518.017849692 983.252004173 c 2
 518.017849692 819.234425889 l 1
 879.783423803 819.234425889 l 1
 879.783423803 681.922860123 l 1
 519.525135704 681.922860123 l 1
 519.525135704 588.062567852 l 2
 519.525135704 361.18141963 454.451273495 211.866847606 401.080417544 155.961565766 c 1
 1082.38870564 155.961565766 l 1
 1082.38870564 0 l 1
 147.492713988 0 l 1
EndSplineSet
EndChar

StartChar: summation
Encoding: 65542 8721 325
Width: 1192
VWidth: 0
GlyphClass: 2
Flags: W
LayerCount: 2
Fore
SplineSet
99.5072860123 -173.825135704 m 1
 99.5072860123 -78.2344258891 l 1
 611.507286012 652.39471816 l 1
 120 1357.08014614 l 1
 120 1454.49271399 l 1
 1092.83970773 1454.49271399 l 1
 1092.83970773 1308.51029227 l 1
 379.415845519 1308.51029227 l 1
 823.709561593 659.059290185 l 1
 354.13670147 -24.5072860123 l 1
 1134.83970773 -24.5072860123 l 1
 1134.83970773 -173.825135704 l 1
 99.5072860123 -173.825135704 l 1
EndSplineSet
EndChar

StartChar: t
Encoding: 84 116 326
Width: 749
VWidth: 0
GlyphClass: 2
Flags: W
AnchorPoint: "top" 500 1026 basechar 0
AnchorPoint: "bottom" 501 0 basechar 0
LayerCount: 2
Fore
SplineSet
678.213841347 0.35 m 1
 622.898997914 0.35 l 2
 319.860563679 0.35 232.643716074 85.3738622096 232.643716074 353.884425889 c 2
 232.643716074 904.881148222 l 1
 24.4344258891 904.881148222 l 1
 24.4344258891 1026 l 1
 234.821858037 1026 l 1
 234.821858037 1290.41557411 l 1
 416.104279753 1343.66457202 l 1
 416.104279753 1026 l 1
 670.76283926 1026 l 1
 670.76283926 904.881148222 l 1
 416.104279753 904.881148222 l 1
 416.104279753 344.198997914 l 2
 416.104279753 168.590709815 446.706555334 142.961565766 678.213841347 142.961565766 c 1
 678.213841347 0.35 l 1
EndSplineSet
EndChar

StartChar: tbar
Encoding: 294 359 327
Width: 745
VWidth: 0
GlyphClass: 2
Flags: W
LayerCount: 2
Fore
SplineSet
43.0771398767 582.590438407 m 1
 43.0771398767 732.112296444 l 1
 668.706283926 732.112296444 l 1
 668.706283926 582.590438407 l 1
 43.0771398767 582.590438407 l 1
EndSplineSet
Refer: 326 116 N 1 0 0 1 0 0 2
EndChar

StartChar: thorn
Encoding: 189 254 329
Width: 1236
VWidth: 0
GlyphClass: 2
Flags: W
LayerCount: 2
Fore
SplineSet
153.786430062 -419.415574111 m 1
 153.786430062 1458.03542798 l 1
 337.433423803 1458.03542798 l 1
 336.940709815 895.768851778 l 1
 413.198997914 996.513569938 538.077139877 1051 663.293716074 1051 c 0
 984.101002086 1051 1136.47185804 811.014572025 1136.47185804 526.507286012 c 0
 1136.47185804 239.35 979.979144049 -23 662.943716074 -23 c 0
 529.198997914 -23 415.234425889 27.4864300616 334.940709815 119.545720247 c 1
 334.590709815 -419.415574111 l 1
 153.786430062 -419.415574111 l 1
637.958288099 125.154279753 m 0
 850.510292271 125.154279753 940.454008345 312.569853864 940.454008345 521 c 0
 940.454008345 716.922860123 867.017578284 900.845720247 644.451002086 900.845720247 c 0
 412.727139877 900.845720247 334.940709815 706.780146136 334.940709815 494 c 0
 334.940709815 282.062567852 440.056283926 125.154279753 637.958288099 125.154279753 c 0
EndSplineSet
EndChar

StartChar: three
Encoding: 19 51 330
Width: 1230
VWidth: 0
GlyphClass: 2
Flags: W
LayerCount: 2
Fore
SplineSet
578.62613779 -23 m 0
 354.552004173 -23 192.080146136 72.0625678521 179.136430062 80.0417119014 c 1
 231.863569938 230.682421716 l 1
 276.72386221 206.744989569 411.786430062 140.646993741 568.370855951 140.646993741 c 0
 754.178141963 140.646993741 885.430146136 241.133423803 885.430146136 408.706283926 c 0
 885.430146136 603.943716074 732.252004173 685.430146136 490.74471816 683.74471816 c 2
 419.272860123 683.252004173 l 1
 417.272860123 844.041711901 l 1
 480.801002086 844.041711901 l 2
 713.035427975 844.041711901 850.39471816 903.848997914 850.39471816 1106.12185804 c 0
 850.39471816 1250.70929018 708.608288099 1321.51029227 560.528141963 1321.51029227 c 0
 396.035427975 1321.51029227 288.534425889 1250.33215031 221.433423803 1189.08014614 c 1
 133.706283926 1315.56985386 l 1
 241.311565766 1428.52814196 385.314572025 1483 583.041711901 1483 c 0
 811.412567852 1483 1037.74799583 1354.68542798 1037.74799583 1109.82185804 c 0
 1037.74799583 937.898997914 946.468851778 809.943716074 774.077139877 765.65 c 1
 964.112567852 726.842713988 1073.90528184 592.979144049 1073.90528184 403.878141963 c 0
 1073.90528184 138 854.077139877 -23 578.62613779 -23 c 0
EndSplineSet
EndChar

StartChar: threequarters
Encoding: 125 190 331
Width: 2116
VWidth: 0
GlyphClass: 2
Flags: W
LayerCount: 2
Fore
SplineSet
471.160563679 602.35 m 0
 373.825135704 602.35 282.133423803 635.35 213.077139877 698.507286012 c 1
 273.219853864 802.727139877 l 1
 336.296993741 751.234425889 402.175135704 725.219853864 463.839707729 725.219853864 c 0
 557.311565766 725.219853864 628.727139877 775.569853864 628.727139877 858.198997914 c 0
 628.727139877 947.629144049 551.62613779 986.157286012 427.353277667 986.157286012 c 0
 423.688705643 986.157286012 362.783423803 985.507286012 362.783423803 985.507286012 c 1
 362.783423803 1109.35628393 l 1
 421.545991655 1109.35628393 l 2
 527.97613779 1109.35628393 604.569853864 1142.23442589 604.569853864 1224.66457202 c 0
 604.569853864 1300.13643006 547.95528184 1333.78643006 468.133423803 1333.78643006 c 0
 399.661565766 1333.78643006 331.590709815 1305.17185804 269.041711901 1258.66457202 c 1
 210.548997914 1360.70628393 l 1
 280.611565766 1419.86356994 381.175135704 1457.33542798 477.510563679 1457.33542798 c 0
 619.688705643 1457.33542798 749.017849692 1380.05628393 749.017849692 1233.21356994 c 0
 749.017849692 1159.42713988 714.388705643 1090.19899791 632.60528184 1053.19899791 c 1
 724.88141963 1018.0417119 772.195991655 946.842713988 772.195991655 855.198997914 c 0
 772.195991655 693.979144049 632.160563679 602.35 471.160563679 602.35 c 0
1308.86411275 328.964572025 m 1
 1533.43068895 328.964572025 l 1
 1533.43068895 645.824864296 l 1
 1308.86411275 328.964572025 l 1
1535.43068895 26.2374321479 m 1
 1535.43068895 215.572860123 l 1
 1159.60883092 215.572860123 l 1
 1159.60883092 311.979144049 l 1
 1526.1015449 826.958288099 l 1
 1671.19954073 826.958288099 l 1
 1671.19954073 328.964572025 l 1
 1782.23496871 328.964572025 l 1
 1789.56411275 215.572860123 l 1
 1669.89954073 215.572860123 l 1
 1669.89954073 26.2374321479 l 1
 1535.43068895 26.2374321479 l 1
512.056555334 0 m 1
 1412.35027141 1456 l 1
 1576.45455116 1456 l 1
 678.0181211 0 l 1
 512.056555334 0 l 1
EndSplineSet
EndChar

StartChar: uni00B3
Encoding: 114 179 332
Width: 1111
VWidth: 0
GlyphClass: 2
Flags: W
LayerCount: 2
Fore
SplineSet
554.85 591.95 m 0
 457.1 591.95 357.25 624.95 286.95 687.9 c 1
 347.3 794.4 l 1
 412.45 742.7 485.45 717.1 546.7 717.1 c 0
 639.55 717.1 702.6 767.45 702.6 849.25 c 0
 702.6 936.4 626.95 975.55 504.75 975.55 c 2
 437.9 975.55 l 1
 437.9 1100.2 l 1
 499.15 1100.2 l 2
 603.3 1100.2 678.65 1133.7 678.65 1213.85 c 0
 678.65 1288.7 628.95 1322.35 549.75 1322.35 c 0
 481.9 1322.35 406.5 1294.15 342.5 1247.85 c 1
 283.8 1351.55 l 1
 356.35 1410.5 464.45 1448 561.2 1448 c 0
 704 1448 826 1370.9 826 1223.85 c 0
 826 1151.1 792.2 1074.75 674.6 1044.25 c 1
 796.4 1015.8 849.8 936.65 849.8 846.25 c 0
 849.8 682.75 715.85 591.95 554.85 591.95 c 0
EndSplineSet
EndChar

StartChar: tilde
Encoding: 369 732 333
Width: 666
VWidth: 0
GlyphClass: 4
Flags: W
AnchorPoint: "top" 339 1000 mark 0
LayerCount: 2
Fore
SplineSet
7.32914404931 1178.70929018 m 1
 7.32914404931 1320.12185804 75.7208559507 1417.21356994 191.584425889 1417.21356994 c 0
 290.62613779 1417.21356994 404.640709815 1319.72085595 476.584425889 1318.03542798 c 0
 520.391711901 1316.84271399 532.468851778 1347.6082881 538.290709815 1417.21356994 c 1
 659.216847606 1417.21356994 l 1
 659.216847606 1268.2165762 597.296993741 1167.23743215 477.590709815 1173.70929018 c 0
 394.234425889 1178.02386221 270.198997914 1274.09471816 198.569853864 1274.09471816 c 0
 152.311565766 1274.09471816 131.60528184 1240.41557411 124.60528184 1178.70929018 c 1
 7.32914404931 1178.70929018 l 1
EndSplineSet
EndChar

StartChar: trademark
Encoding: 416 8482 334
Width: 1869
VWidth: 0
GlyphClass: 2
Flags: W
LayerCount: 2
Fore
SplineSet
816.964572025 677.72386221 m 1
 816.964572025 1447.08014614 l 1
 989.62613779 1447.08014614 l 1
 1248.51356994 878.27613779 l 1
 1517.25200417 1447.08014614 l 1
 1682.58442589 1447.08014614 l 1
 1682.58442589 677.72386221 l 1
 1547.39471816 677.72386221 l 1
 1547.39471816 1237.27258871 l 1
 1290.06256785 677.72386221 l 1
 1202.66457202 677.72386221 l 1
 949.961565766 1233.74444675 l 1
 949.961565766 677.72386221 l 1
 816.964572025 677.72386221 l 1
315.415574111 677.72386221 m 1
 315.415574111 1329.78315239 l 1
 70.8427139877 1329.78315239 l 1
 70.8427139877 1447.08014614 l 1
 707.65 1447.08014614 l 1
 707.65 1329.78315239 l 1
 456.062567852 1329.78315239 l 1
 456.062567852 677.72386221 l 1
 315.415574111 677.72386221 l 1
EndSplineSet
EndChar

StartChar: two
Encoding: 18 50 335
Width: 1244
VWidth: 0
GlyphClass: 2
Flags: W
LayerCount: 2
Fore
SplineSet
599.05 1481.65 m 0
 852.8675 1481.65 1032.0655 1311.5675 1039.0655 1053.343 c 0
 1045.3655 840.82685 952 677 762 485 c 2
 456.85 176.25 l 1
 1033.1 176.25 l 1
 1033.1 0 l 1
 203.1 0 l 1
 203.1 165 l 1
 624 613 l 2
 784 783 839.26925 908.6795 831.21925 1049.852 c 1
 824.21925 1203.9645 731.42105 1301.35 584.25 1301.35 c 0
 387.35 1301.35 222.5 1174 222.15 1174 c 2
 153.85 1339.95 l 1
 153.85 1339.95 328.55 1481.65 599.05 1481.65 c 0
EndSplineSet
EndChar

StartChar: uni00B2
Encoding: 113 178 336
Width: 1157
VWidth: 0
GlyphClass: 2
Flags: W
LayerCount: 2
Fore
SplineSet
299.9 617.9 m 1
 299.9 746.4 l 1
 577.9 988.25 711.95 1125.45 711.95 1219.65 c 0
 711.95 1285.95 661.4 1324.3 582.45 1324.3 c 0
 504 1324.3 430.2 1280.6 379.25 1211.85 c 1
 301.25 1314.35 l 1
 364.4 1406.25 471.95 1458.45 590.9 1458.45 c 0
 743.7 1458.45 863.7 1373.95 863.7 1221.65 c 0
 863.7 1053.15 705.15 914.4 513.75 756.55 c 1
 859.2 756.55 l 1
 859.2 617.9 l 1
 299.9 617.9 l 1
EndSplineSet
EndChar

StartChar: u
Encoding: 85 117 337
Width: 1230
VWidth: 0
GlyphClass: 2
Flags: W
AnchorPoint: "top" 600 1026 basechar 0
AnchorPoint: "bottom" 587 0 basechar 0
AnchorPoint: "ogonek" 947 0 basechar 0
LayerCount: 2
Fore
SplineSet
553.430146136 -22.35 m 0
 262.213569938 -22.35 153.258288099 171.216576197 153.258288099 391.943716074 c 2
 153.258288099 1026 l 1
 336.368851778 1026 l 1
 336.368851778 392.136430062 l 2
 336.368851778 215.584425889 424.25528184 127.454279753 585.979144049 127.454279753 c 0
 766.231148222 127.454279753 870.675866382 242.492713988 870.675866382 416.964572025 c 2
 870.675866382 1026 l 1
 1054.48643006 1026 l 1
 1054.48643006 253.234425889 l 2
 1054.48643006 173.311565766 1059.01457202 60.6112943575 1063.32914405 0 c 1
 873.611294357 0 l 1
 870.46858037 163.486430062 l 1
 817.902004173 69.6052818397 718.786430062 -22.35 553.430146136 -22.35 c 0
EndSplineSet
EndChar

StartChar: underscore
Encoding: 63 95 345
Width: 940
VWidth: 0
GlyphClass: 2
Flags: W
LayerCount: 2
Fore
SplineSet
-4.67085595069 -268.643716074 m 1
 -4.67085595069 -124.489436321 l 1
 944.866847606 -124.489436321 l 1
 944.866847606 -268.643716074 l 1
 -4.67085595069 -268.643716074 l 1
EndSplineSet
EndChar

StartChar: uni007F
Encoding: 65544 127 347
Width: 1521
VWidth: 0
GlyphClass: 2
Flags: W
LayerCount: 2
Fore
SplineSet
188 0 m 1
 188 1456 l 1
 1333 1456 l 1
 1333 0 l 1
 188 0 l 1
360 1330 m 1
 360 124 l 1
 1161 124 l 1
 1161 1330 l 1
 360 1330 l 1
EndSplineSet
EndChar

StartChar: uni00AD
Encoding: 108 173 349
Width: 728
VWidth: 0
GlyphClass: 2
Flags: W
LayerCount: 2
Fore
SplineSet
69.2374321479 1186.51356994 m 1
 68.5874321479 1330.97613779 l 1
 652.370855951 1330.97613779 l 1
 653.020855951 1186.51356994 l 1
 69.2374321479 1186.51356994 l 1
EndSplineSet
EndChar

StartChar: uni0311
Encoding: 373 785 385
Width: 629
VWidth: 0
GlyphClass: 4
Flags: W
AnchorPoint: "top" 318 1000 mark 0
LayerCount: 2
Fore
SplineSet
28.8109844257 1226.29144049 m 1
 41.8109844257 1388.24814517 140.476248605 1464.29144049 316.637803115 1464.29144049 c 0
 482.567046723 1464.29144049 587.826818689 1383.97253894 599.826818689 1226.29144049 c 1
 520.204849838 1226.61034205 l 1
 495.653637378 1319.5237514 400.232310902 1356.56704672 307.767689098 1356.56704672 c 0
 215.621968851 1356.56704672 126.751854835 1326.7560623 110.432953277 1226.61034205 c 1
 28.8109844257 1226.29144049 l 1
EndSplineSet
EndChar

StartChar: uni2015
Encoding: 65545 8213 400
Width: 4095
VWidth: 0
GlyphClass: 2
Flags: W
LayerCount: 2
Fore
SplineSet
61.6145720247 480.430146136 m 1
 61.6145720247 629.513569938 l 1
 4033.97085595 629.513569938 l 1
 4033.97085595 480.430146136 l 1
 61.6145720247 480.430146136 l 1
EndSplineSet
EndChar

StartChar: uni2206
Encoding: 417 8710 401
Width: 1312
VWidth: 0
GlyphClass: 2
Flags: W
LayerCount: 2
Fore
SplineSet
39.65 0 m 1
 1265.03542798 0 l 1
 1265.03542798 86.3917119014 l 1
 727.961565766 1421.41557411 l 1
 577.72386221 1421.41557411 l 1
 39.65 86.3917119014 l 1
 39.65 0 l 1
260.492985396 150.216847606 m 1
 286.902546989 225.231962447 626.569582456 1068.74390394 652.979144049 1143.90173276 c 1
 681.216847606 1067.40847596 1012.76202504 226.217390422 1040.99972859 150.216847606 c 1
 260.492985396 150.216847606 l 1
EndSplineSet
EndChar

StartChar: v
Encoding: 86 118 405
Width: 1050
VWidth: 0
GlyphClass: 2
Flags: W
LayerCount: 2
Fore
SplineSet
437.213569938 0 m 1
 8.02085595069 1026 l 1
 208.552275581 1026 l 1
 463.884425889 374.371127359 l 1
 532.783423803 187.744989569 l 1
 597.682421716 374.371127359 l 1
 847.314572025 1026 l 1
 1043.00327767 1026 l 1
 614.175135704 0 l 1
 437.213569938 0 l 1
EndSplineSet
EndChar

StartChar: w
Encoding: 87 119 406
Width: 1629
VWidth: 0
GlyphClass: 2
Flags: W
AnchorPoint: "top" 843 1026 basechar 0
AnchorPoint: "bottom" 840 0 basechar 0
LayerCount: 2
Fore
SplineSet
540.996993741 0 m 1
 775.041711901 668.21329853 l 1
 822.741711901 805.356012518 l 1
 867.741711901 666.056012518 l 1
 1087.62914405 0 l 1
 1260.23442589 0 l 1
 1601.19599165 1026 l 1
 1422.89899791 1026 l 1
 1218.42713988 322.472129445 l 1
 1185.19899791 213.094989569 l 1
 1149.52814196 322.807557421 l 1
 920.804279753 1026 l 1
 742.863569938 1026 l 1
 505.525135704 321.727411285 l 1
 468.97613779 214.237703556 l 1
 433.727139877 329.234697297 l 1
 223.489707729 1026 l 1
 28.1364300616 1026 l 1
 368.041711901 0 l 1
 540.996993741 0 l 1
EndSplineSet
EndChar

StartChar: x
Encoding: 88 120 411
Width: 1072
VWidth: 0
GlyphClass: 2
Flags: W
HStem: 0 21G<34.2719 248.853 819.908 1036.4> 1006 20G<58.3008 276.204 814.369 1027.58>
LayerCount: 2
UndoRedoHistory
Layer: 1
Undoes
EndUndoes
Redoes
EndRedoes
EndUndoRedoHistory
Fore
SplineSet
34.271858037 0 m 1
 433.175866382 512.136430062 l 1
 58.30078125 1025.71484375 l 1
 261.883423803 1026 l 1
 535.553006259 643.804279753 l 1
 829.765302703 1026 l 5
 1027.57686847 1026 l 5
 642.702004173 523.370855951 l 1
 1036.39872651 0 l 1
 834.880876814 0 l 1
 540.024864296 393.860292271 l 1
 233.27613779 0 l 1
 34.271858037 0 l 1
EndSplineSet
EndChar

StartChar: y
Encoding: 89 121 412
Width: 1058
VWidth: 0
GlyphClass: 2
Flags: W
AnchorPoint: "top" 536 1026 basechar 0
LayerCount: 2
Fore
SplineSet
211.133423803 -432.863569938 m 1
 135.213569938 -307.587432148 l 1
 330.7 -243.059290185 412.178141963 -139.014572025 445.685427975 -39.1364300616 c 2
 461.842713988 10.2135699384 l 1
 43.643716074 1026 l 1
 235.154279753 1026 l 1
 551.90528184 203.902275581 l 1
 849.979144049 1026 l 1
 1034.98242172 1026 l 1
 620.489707729 -54.4927139877 l 2
 547.133423803 -243.097995827 405.563569938 -384.528141963 211.133423803 -432.863569938 c 1
EndSplineSet
EndChar

StartChar: yen
Encoding: 100 165 416
Width: 1220
VWidth: 0
GlyphClass: 2
Flags: W
LayerCount: 2
Fore
SplineSet
1022.17841337 258.198997914 m 1
 169.293716074 258.198997914 l 1
 169.293716074 398.27613779 l 1
 539.062567852 398.27613779 l 1
 539.062567852 548.486430062 l 1
 169.293716074 548.486430062 l 1
 169.293716074 691.548997914 l 1
 1021.68569938 691.548997914 l 1
 1021.68569938 548.486430062 l 1
 659.839707729 548.486430062 l 1
 659.839707729 398.27613779 l 1
 1022.17841337 398.27613779 l 1
 1022.17841337 258.198997914 l 1
EndSplineSet
Refer: 113 89 N 1 0 0 1 0 0 2
EndChar

StartChar: z
Encoding: 90 122 418
Width: 969
VWidth: 0
GlyphClass: 2
Flags: W
AnchorPoint: "top" 506 1026 basechar 0
AnchorPoint: "bottom" 555 0 basechar 0
LayerCount: 2
Fore
SplineSet
96.3354279753 0 m 1
 96.3354279753 98.9052818397 l 1
 634.353006259 876.038434234 l 1
 103.884425889 876.038434234 l 1
 103.884425889 1026 l 1
 871.762567852 1026 l 1
 871.762567852 929.09471816 l 1
 333.552275581 148.961565766 l 1
 891.590709815 148.961565766 l 1
 891.590709815 0 l 1
 96.3354279753 0 l 1
EndSplineSet
EndChar

StartChar: zero
Encoding: 16 48 422
Width: 1230
VWidth: 0
GlyphClass: 2
Flags: W
LayerCount: 2
Fore
SplineSet
622.548997914 140.646993741 m 0
 838.629144049 140.646993741 905.801002086 394.269853864 905.801002086 731.528141963 c 0
 905.801002086 1063.51029227 837.471858037 1317.84572025 621.898997914 1317.84572025 c 0
 400.62613779 1317.84572025 320.667849692 1063.86029227 320.667849692 732.178141963 c 0
 320.667849692 394.919853864 401.27613779 140.646993741 622.548997914 140.646993741 c 0
619.198997914 -23 m 0
 289.848997914 -23 124 288.664572025 124 732.528141963 c 0
 124 1198.52814196 289.356283926 1483 621.198997914 1483 c 0
 952.691711901 1483 1106.7834238 1194.01457202 1106.7834238 731.878141963 c 0
 1106.7834238 287.857286012 953.041711901 -23 619.198997914 -23 c 0
EndSplineSet
EndChar

